<svg width="1589" height="1196" viewBox="0 0 1589 1196" fill="none" xmlns="http://www.w3.org/2000/svg">
<g clip-path="url(#clip0_1_146)">
<g opacity="0.45">
<path opacity="0.8" d="M15.502 401.582C15.502 308.713 96.2479 233.428 195.853 233.428H233.474C215.878 219.226 204.729 198.263 204.729 174.86C204.729 132.084 241.922 97.407 287.8 97.407H413.01C400.347 87.243 392.297 72.221 392.297 55.42C392.297 24.813 418.911 0.000976562 451.737 0.000976562H766.142C798.967 0.000976562 825.58 24.813 825.58 55.42C825.58 86.028 798.967 110.84 766.142 110.84H648.418C626.498 124.785 612.105 148.253 612.105 174.861C612.105 198.264 623.251 219.227 640.848 233.429H834.457C934.061 233.429 1014.81 308.715 1014.81 401.583C1014.81 494.454 934.062 569.739 834.457 569.739H1090.94C1136.82 569.739 1174.02 604.415 1174.02 647.192C1174.02 689.969 1136.82 724.647 1090.94 724.647H1195.45C1309.63 724.647 1404.42 801.829 1423.23 903.274H1459.82C1531.02 903.274 1588.73 957.087 1588.73 1023.47V1035.64C1588.73 1102.02 1531.02 1155.83 1459.82 1155.83H1195.45H330.239H246.732C119.027 1155.83 15.502 1059.31 15.502 940.238C15.502 821.168 119.028 724.646 246.732 724.646H651.539C605.658 724.646 568.469 689.968 568.469 647.191C568.469 604.414 605.658 569.738 651.539 569.738H195.852C96.2479 569.738 15.502 494.453 15.502 401.582Z" fill="#FFABAB"/>
<path opacity="0.53" d="M934.6 110.84C904.779 110.84 880.602 86.027 880.602 55.42C880.602 24.812 904.779 0 934.6 0C964.424 0 988.602 24.812 988.602 55.42C988.602 86.027 964.424 110.84 934.6 110.84Z" fill="#ABE9FF"/>
</g>
<path opacity="0.15" d="M1584.64 1158.28C1584.64 1178.76 1234.29 1195.36 802.118 1195.36C369.945 1195.36 19.5981 1178.76 19.5981 1158.28C19.5981 1137.8 369.944 1121.2 802.118 1121.2C1234.29 1121.2 1584.64 1137.8 1584.64 1158.28Z" fill="#231F20"/>
<path d="M87.0258 1098.18C89.4798 1096.39 94.4517 1098.53 110.611 1091.8C134.182 1081.99 143.388 1031.26 143.388 1031.26C107.522 1026.77 109.79 1078.45 95.9088 1087.29C89.6448 1091.28 86.6977 1095.14 85.3438 1098.18H87.0258Z" fill="#66E8C4"/>
<path d="M132.262 1046.37C124.887 1061.4 116.184 1083.57 101.491 1090.65C97.3907 1092.62 94.3947 1094.85 92.1567 1097.05C95.6987 1096.61 101.29 1095.69 110.611 1091.8C134.182 1081.99 143.388 1031.26 143.388 1031.26C143.388 1031.26 139.636 1031.34 132.262 1046.37Z" fill="#3FD2C5"/>
<path d="M71.9001 1098.18H75.7841C78.3101 1092.81 79.1231 1082.71 70.6751 1064.17C55.0431 1029.86 47.154 985.364 58.047 972.278C58.047 972.278 20.743 998.87 29.224 1026.53C37.184 1052.49 77.2661 1069.78 71.9001 1098.18Z" fill="#35BFE6"/>
<path d="M73.4797 1098.18H75.7877C78.3137 1092.81 79.1228 1082.71 70.6748 1064.17C55.0428 1029.86 47.1538 985.364 58.0468 972.278C58.0468 972.278 33.4238 999.661 42.7678 1025.88C51.9898 1051.77 80.4117 1065.25 73.4797 1098.18Z" fill="#0A88D2"/>
<path d="M35.0591 1083.68C49.2591 1089.46 55.3301 1093.31 59.2891 1098.18H64.2741C60.5471 1086.92 58.325 1074.87 49.579 1065.76C39.652 1055.41 1.38209 1038.39 0.0710848 1036.41C-1.24391 1034.44 15.8831 1075.87 35.0591 1083.68Z" fill="#49D3D5"/>
<path d="M59.8953 1095C60.1913 1095.9 60.6223 1096.99 61.1393 1098.18H64.2753C60.5483 1086.92 58.3263 1074.87 49.5803 1065.76C39.6533 1055.41 1.38327 1038.39 0.0722656 1036.41C0.0722656 1036.41 18.6442 1059.71 39.3032 1070.35C54.0912 1077.97 58.0073 1089.24 59.8953 1095Z" fill="#0FA1B8"/>
<path d="M82.6721 1081.91C82.1941 1088.71 80.6591 1094.13 79.0301 1098.18H81.745C91.063 1086.15 105.398 1062.8 102.713 1035.53C98.7921 995.682 94.5231 945.729 94.5231 945.729C94.5231 945.729 42.0711 985.5 67.8801 1029.61C80.7511 1051.6 83.5701 1069.14 82.6721 1081.91Z" fill="#66E8C7"/>
<path d="M85.3302 1008.4C90.6502 1041.42 90.7182 1078.4 82.2422 1094.04C83.7882 1092.95 85.4402 1091.8 87.1332 1090.63C95.6712 1077.62 104.914 1057.89 102.714 1035.53C98.7931 995.681 94.5242 945.728 94.5242 945.728C94.5242 945.728 78.4102 965.425 85.3302 1008.4Z" fill="#3FD2C5"/>
<path d="M113.505 1095.76H53.8059C48.5139 1095.76 44.498 1100.53 45.404 1105.74L53.0349 1149.68C54.2199 1155.92 59.6749 1160.44 66.0249 1160.44H101.287C107.637 1160.44 113.092 1155.92 114.279 1149.68L121.908 1105.74C122.812 1100.53 118.798 1095.76 113.505 1095.76Z" fill="#CADBF9"/>
<path d="M122.021 1104.58C122.192 1099.84 118.401 1095.76 113.505 1095.76H53.806C48.913 1095.76 45.1179 1099.84 45.2929 1104.58H122.021Z" fill="#A1B7EB"/>
<path d="M113.505 1095.76H96.9031C102.196 1095.76 106.211 1100.53 105.305 1105.74L97.676 1149.68C96.489 1155.92 91.0361 1160.44 84.6841 1160.44H101.285C107.635 1160.44 113.09 1155.92 114.277 1149.68L121.906 1105.74C122.812 1100.53 118.798 1095.76 113.505 1095.76Z" fill="#A1B7EB"/>
<path d="M1515.98 1098.18C1518.43 1096.39 1523.4 1098.53 1539.56 1091.8C1563.13 1081.99 1572.34 1031.26 1572.34 1031.26C1536.47 1026.77 1538.74 1078.45 1524.86 1087.29C1518.6 1091.28 1515.65 1095.14 1514.3 1098.18H1515.98Z" fill="#66E8C4"/>
<path d="M1561.21 1046.37C1553.84 1061.4 1545.13 1083.57 1530.44 1090.65C1526.34 1092.62 1523.34 1094.85 1521.11 1097.05C1524.65 1096.61 1530.24 1095.69 1539.56 1091.8C1563.13 1081.99 1572.34 1031.26 1572.34 1031.26C1572.34 1031.26 1568.59 1031.34 1561.21 1046.37Z" fill="#3FD2C5"/>
<path d="M1500.85 1098.18H1504.74C1507.26 1092.81 1508.07 1082.71 1499.63 1064.17C1484 1029.86 1476.1 985.364 1487 972.278C1487 972.278 1449.69 998.87 1458.17 1026.53C1466.13 1052.49 1506.22 1069.78 1500.85 1098.18Z" fill="#35BFE6"/>
<path d="M1502.43 1098.18H1504.74C1507.26 1092.81 1508.08 1082.71 1499.63 1064.17C1484 1029.86 1476.11 985.364 1487 972.278C1487 972.278 1462.38 999.661 1471.72 1025.88C1480.94 1051.77 1509.36 1065.25 1502.43 1098.18Z" fill="#0A88D2"/>
<path d="M1464.01 1083.68C1478.21 1089.46 1484.28 1093.31 1488.24 1098.18H1493.23C1489.5 1086.92 1487.28 1074.87 1478.53 1065.76C1468.6 1055.41 1430.33 1038.39 1429.02 1036.41C1427.71 1034.44 1444.83 1075.87 1464.01 1083.68Z" fill="#49D3D5"/>
<path d="M1488.84 1095C1489.14 1095.9 1489.57 1096.99 1490.09 1098.18H1493.23C1489.5 1086.92 1487.28 1074.87 1478.53 1065.76C1468.6 1055.41 1430.34 1038.39 1429.02 1036.41C1429.02 1036.41 1447.6 1059.71 1468.25 1070.35C1483.04 1077.97 1486.96 1089.24 1488.84 1095Z" fill="#0FA1B8"/>
<path d="M1511.62 1081.91C1511.14 1088.71 1509.61 1094.13 1507.98 1098.18H1510.69C1520.01 1086.15 1534.35 1062.8 1531.66 1035.53C1527.74 995.682 1523.47 945.729 1523.47 945.729C1523.47 945.729 1471.02 985.5 1496.83 1029.61C1509.7 1051.6 1512.52 1069.14 1511.62 1081.91Z" fill="#66E8C7"/>
<path d="M1514.28 1008.4C1519.6 1041.42 1519.67 1078.4 1511.19 1094.04C1512.74 1092.95 1514.39 1091.8 1516.08 1090.63C1524.62 1077.62 1533.87 1057.89 1531.66 1035.53C1527.74 995.681 1523.48 945.728 1523.48 945.728C1523.48 945.728 1507.36 965.425 1514.28 1008.4Z" fill="#3FD2C5"/>
<path d="M1542.46 1095.76H1482.76C1477.46 1095.76 1473.45 1100.53 1474.36 1105.74L1481.98 1149.68C1483.17 1155.92 1488.62 1160.44 1494.98 1160.44H1530.24C1536.59 1160.44 1542.04 1155.92 1543.23 1149.68L1550.86 1105.74C1551.76 1100.53 1547.75 1095.76 1542.46 1095.76Z" fill="#CADBF9"/>
<path d="M1550.97 1104.58C1551.14 1099.84 1547.35 1095.76 1542.46 1095.76H1482.76C1477.86 1095.76 1474.07 1099.84 1474.24 1104.58H1550.97Z" fill="#A1B7EB"/>
<path d="M1542.46 1095.76H1525.85C1531.15 1095.76 1535.16 1100.53 1534.25 1105.74L1526.62 1149.68C1525.44 1155.92 1519.98 1160.44 1513.64 1160.44H1530.24C1536.59 1160.44 1542.04 1155.92 1543.23 1149.68L1550.86 1105.74C1551.76 1100.53 1547.75 1095.76 1542.46 1095.76Z" fill="#A1B7EB"/>
<path d="M1054.64 720.009H137.963C125.345 720.009 115.115 709.78 115.115 697.161V73.611C115.115 60.992 125.345 50.763 137.963 50.763H1054.63C1067.25 50.763 1077.48 60.992 1077.48 73.611V697.161C1077.48 709.781 1067.25 720.009 1054.64 720.009Z" fill="#1D3B77"/>
<path d="M1046.25 720.009H137.684C125.22 720.009 115.114 709.904 115.114 697.441V83.6609C115.114 71.1969 125.219 61.093 137.684 61.093H1046.25C1058.71 61.093 1068.81 71.1969 1068.81 83.6609V697.441C1068.82 709.904 1058.71 720.009 1046.25 720.009Z" fill="#7C5BFF"/>
<path d="M833.308 685.021H115.115V697.441C115.115 709.904 125.22 720.009 137.685 720.009H868.803L833.308 685.021Z" fill="#1D3B77"/>
<path d="M1051.65 77.861H132.283V665.343H1051.65V77.861Z" fill="#9F87FF"/>
<path d="M169.463 688.498C169.463 694.523 164.581 699.41 158.552 699.41C152.527 699.41 147.641 694.523 147.641 688.498C147.641 682.469 152.526 677.586 158.552 677.586C164.581 677.586 169.463 682.468 169.463 688.498Z" fill="white"/>
<path d="M206.1 688.498C206.1 694.523 201.213 699.41 195.185 699.41C189.16 699.41 184.274 694.523 184.274 688.498C184.274 682.469 189.159 677.586 195.185 677.586C201.213 677.586 206.1 682.468 206.1 688.498Z" fill="white"/>
<path d="M242.734 688.498C242.734 694.523 237.849 699.41 231.82 699.41C225.794 699.41 220.909 694.523 220.909 688.498C220.909 682.469 225.794 677.586 231.82 677.586C237.849 677.586 242.734 682.468 242.734 688.498Z" fill="white"/>
<path opacity="0.2" d="M1029.71 199.212H896.668H888.52V190.462C888.52 184.927 884.201 180.441 878.877 180.441H722.002H712.664V160.579C712.664 154.405 707.85 149.399 701.908 149.399H490.193C484.254 149.399 479.435 154.405 479.435 160.579V178.896H303.092C298.98 178.896 295.491 181.583 294.105 185.351H290.033H166.567C161.694 185.351 157.743 189.457 157.743 194.523V511.697C157.743 516.763 161.695 520.871 166.567 520.871H289.374H293.45V535.486C293.45 541.019 297.765 545.507 303.093 545.507H479.436V547.193C479.436 553.367 484.254 558.373 490.194 558.373H701.909C707.85 558.373 712.665 553.367 712.665 547.193V547.052H722.003H878.878C884.201 547.052 888.521 542.564 888.521 537.031V534.73H896.669H1029.71C1034.58 534.73 1038.53 530.625 1038.53 525.558V208.383C1038.53 203.318 1034.58 199.212 1029.71 199.212Z" fill="black"/>
<path d="M1017.69 515.043H846.396C841.588 515.043 837.691 511.147 837.691 506.34V205.37C837.691 200.563 841.588 196.667 846.396 196.667H1017.69C1022.5 196.667 1026.39 200.563 1026.39 205.37V506.34C1026.39 511.146 1022.5 515.043 1017.69 515.043Z" fill="white"/>
<path d="M959.073 451.936H996.18C998.035 451.936 999.537 450.215 999.537 448.095C999.537 445.972 998.035 444.253 996.18 444.253H959.073C957.217 444.253 955.715 445.972 955.715 448.095C955.714 450.215 957.216 451.936 959.073 451.936Z" fill="#9BAED3"/>
<path d="M999.102 364.381H896.683C896.444 364.381 896.248 364.186 896.248 363.944V357.641C896.248 357.4 896.443 357.203 896.683 357.203H999.102C999.343 357.203 999.538 357.399 999.538 357.641V363.944C999.537 364.186 999.343 364.381 999.102 364.381Z" fill="#9BAED3"/>
<path d="M885.494 370.661H867.41C867.181 370.661 866.997 370.477 866.997 370.249V351.335C866.997 351.108 867.182 350.924 867.41 350.924H885.494C885.722 350.924 885.907 351.108 885.907 351.335V370.249C885.908 370.477 885.722 370.661 885.494 370.661Z" fill="#9BAED3"/>
<path d="M999.102 393.09H896.683C896.444 393.09 896.248 392.894 896.248 392.652V386.35C896.248 386.107 896.443 385.912 896.683 385.912H999.102C999.343 385.912 999.538 386.107 999.538 386.35V392.652C999.537 392.894 999.343 393.09 999.102 393.09Z" fill="#9BAED3"/>
<path d="M885.494 399.369H867.41C867.181 399.369 866.997 399.186 866.997 398.958V380.043C866.997 379.815 867.182 379.631 867.41 379.631H885.494C885.722 379.631 885.907 379.815 885.907 380.043V398.958C885.908 399.186 885.722 399.369 885.494 399.369Z" fill="#9BAED3"/>
<path d="M999.102 421.798H896.683C896.444 421.798 896.248 421.602 896.248 421.36V415.058C896.248 414.816 896.443 414.62 896.683 414.62H999.102C999.343 414.62 999.538 414.816 999.538 415.058V421.36C999.537 421.603 999.343 421.798 999.102 421.798Z" fill="#9BAED3"/>
<path d="M885.494 428.079H867.41C867.181 428.079 866.997 427.894 866.997 427.667V408.752C866.997 408.524 867.182 408.34 867.41 408.34H885.494C885.722 408.34 885.907 408.524 885.907 408.752V427.667C885.908 427.894 885.722 428.079 885.494 428.079Z" fill="#9BAED3"/>
<path d="M998.086 330.738H864.771C864.646 330.738 864.545 330.637 864.545 330.513V327.374C864.545 327.25 864.646 327.149 864.771 327.149H998.086C998.211 327.149 998.311 327.25 998.311 327.374V330.513C998.311 330.637 998.211 330.738 998.086 330.738Z" fill="#9BAED3"/>
<path d="M890.227 468.445L892.756 473.568L898.408 474.39L894.317 478.377L895.283 484.007L890.227 481.349L885.17 484.007L886.135 478.377L882.045 474.39L887.698 473.568L890.227 468.445Z" fill="#FFE007"/>
<path d="M895.073 473.904C892.355 478.925 887.633 480.697 885.644 481.24L885.17 484.008L890.227 481.35L895.283 484.008L894.317 478.377L898.408 474.391L895.073 473.904Z" fill="#FEC106"/>
<path d="M911.133 468.445L913.662 473.568L919.315 474.39L915.225 478.377L916.19 484.007L911.133 481.349L906.079 484.007L907.045 478.377L902.952 474.39L908.606 473.568L911.133 468.445Z" fill="#FFE007"/>
<path d="M915.982 473.904C913.263 478.925 908.542 480.697 906.553 481.24L906.079 484.008L911.133 481.35L916.19 484.008L915.225 478.377L919.315 474.391L915.982 473.904Z" fill="#FEC106"/>
<path d="M932.042 468.445L934.568 473.568L940.222 474.39L936.132 478.377L937.098 484.007L932.042 481.349L926.985 484.007L927.951 478.377L923.86 474.39L929.513 473.568L932.042 468.445Z" fill="#FFE007"/>
<path d="M936.887 473.904C934.168 478.925 929.448 480.697 927.459 481.24L926.984 484.008L932.042 481.35L937.098 484.008L936.132 478.377L940.222 474.391L936.887 473.904Z" fill="#FEC106"/>
<path d="M952.951 468.445L955.478 473.568L961.13 474.39L957.038 478.377L958.005 484.007L952.951 481.349L947.894 484.007L948.858 478.377L944.769 474.39L950.421 473.568L952.951 468.445Z" fill="#9BAED3"/>
<path d="M957.798 473.904C955.079 478.925 950.358 480.697 948.369 481.24L947.893 484.008L952.95 481.35L958.005 484.008L957.038 478.377L961.13 474.391L957.798 473.904Z" fill="#9BAED3"/>
<path d="M973.857 468.445L976.385 473.568L982.037 474.39L977.948 478.377L978.912 484.007L973.857 481.349L968.8 484.007L969.766 478.377L965.675 474.39L971.327 473.568L973.857 468.445Z" fill="#9BAED3"/>
<path d="M978.702 473.904C975.983 478.925 971.262 480.697 969.273 481.24L968.799 484.008L973.856 481.35L978.912 484.008L977.948 478.377L982.037 474.391L978.702 473.904Z" fill="#9BAED3"/>
<path d="M933.611 300.576C958.73 299.664 978.354 278.56 977.441 253.441C976.529 228.321 955.426 208.697 930.307 209.61C905.188 210.522 885.564 231.625 886.477 256.745C887.389 281.865 908.492 301.489 933.611 300.576Z" fill="#7FABE3"/>
<path d="M917.424 240.343C917.424 248.366 923.932 254.87 931.952 254.87C939.976 254.87 946.479 248.366 946.479 240.343C946.479 232.32 939.976 225.815 931.952 225.815C923.932 225.815 917.424 232.32 917.424 240.343Z" fill="white"/>
<path d="M907.776 280.597C908.143 267.497 918.854 256.983 932.042 256.983C945.23 256.983 955.94 267.497 956.308 280.597H907.776Z" fill="white"/>
<path d="M337.739 501.89H166.445C161.638 501.89 157.744 497.994 157.744 493.187V192.217C157.744 187.41 161.639 183.514 166.445 183.514H337.739C342.546 183.514 346.444 187.41 346.444 192.217V493.187C346.444 497.994 342.545 501.89 337.739 501.89Z" fill="white"/>
<path d="M279.123 438.783H316.232C318.086 438.783 319.589 437.062 319.589 434.942C319.589 432.82 318.086 431.101 316.232 431.101H279.123C277.269 431.101 275.766 432.821 275.766 434.942C275.766 437.062 277.27 438.783 279.123 438.783Z" fill="#9BAED3"/>
<path d="M319.153 351.228H216.737C216.495 351.228 216.299 351.032 216.299 350.79V344.487C216.299 344.246 216.495 344.05 216.737 344.05H319.153C319.395 344.05 319.591 344.246 319.591 344.487V350.79C319.59 351.031 319.395 351.228 319.153 351.228Z" fill="#9BAED3"/>
<path d="M205.548 357.508H187.461C187.233 357.508 187.051 357.323 187.051 357.096V338.181C187.051 337.953 187.233 337.77 187.461 337.77H205.548C205.773 337.77 205.958 337.954 205.958 338.181V357.096C205.958 357.323 205.772 357.508 205.548 357.508Z" fill="#9BAED3"/>
<path d="M319.153 379.937H216.737C216.495 379.937 216.299 379.741 216.299 379.499V373.196C216.299 372.954 216.495 372.759 216.737 372.759H319.153C319.395 372.759 319.591 372.954 319.591 373.196V379.499C319.59 379.741 319.395 379.937 319.153 379.937Z" fill="#9BAED3"/>
<path d="M205.548 386.216H187.461C187.233 386.216 187.051 386.031 187.051 385.804V366.89C187.051 366.662 187.233 366.479 187.461 366.479H205.548C205.773 366.479 205.958 366.663 205.958 366.89V385.804C205.958 386.032 205.772 386.216 205.548 386.216Z" fill="#9BAED3"/>
<path d="M319.153 408.646H216.737C216.495 408.646 216.299 408.45 216.299 408.208V401.905C216.299 401.664 216.495 401.468 216.737 401.468H319.153C319.395 401.468 319.591 401.664 319.591 401.905V408.208C319.59 408.45 319.395 408.646 319.153 408.646Z" fill="#9BAED3"/>
<path d="M205.548 414.925H187.461C187.233 414.925 187.051 414.741 187.051 414.514V395.6C187.051 395.373 187.233 395.188 187.461 395.188H205.548C205.773 395.188 205.958 395.373 205.958 395.6V414.514C205.958 414.741 205.772 414.925 205.548 414.925Z" fill="#9BAED3"/>
<path d="M318.137 317.585H184.82C184.695 317.585 184.596 317.485 184.596 317.36V314.221C184.596 314.096 184.696 313.996 184.82 313.996H318.137C318.262 313.996 318.362 314.098 318.362 314.221V317.361C318.362 317.485 318.262 317.585 318.137 317.585Z" fill="#9BAED3"/>
<path d="M210.276 455.292L212.806 460.414L218.458 461.235L214.367 465.222L215.333 470.853L210.276 468.195L205.22 470.853L206.186 465.222L202.095 461.235L207.75 460.414L210.276 455.292Z" fill="#FFE007"/>
<path d="M215.126 460.752C212.407 465.772 207.683 467.543 205.696 468.088L205.22 470.854L210.276 468.196L215.333 470.854L214.367 465.223L218.458 461.236L215.126 460.752Z" fill="#FEC106"/>
<path d="M231.186 455.292L233.712 460.414L239.367 461.235L235.276 465.222L236.242 470.853L231.186 468.195L226.129 470.853L227.095 465.222L223.004 461.235L228.656 460.414L231.186 455.292Z" fill="#FFE007"/>
<path d="M236.032 460.752C233.313 465.772 228.592 467.543 226.603 468.088L226.129 470.854L231.186 468.196L236.242 470.854L235.276 465.223L239.367 461.236L236.032 460.752Z" fill="#FEC106"/>
<path d="M252.092 455.292L254.621 460.414L260.273 461.235L256.182 465.222L257.148 470.853L252.092 468.195L247.036 470.853L248.001 465.222L243.911 461.235L249.565 460.414L252.092 455.292Z" fill="#FFE007"/>
<path d="M256.939 460.752C254.22 465.772 249.499 467.543 247.509 468.088L247.035 470.854L252.091 468.196L257.147 470.854L256.182 465.223L260.272 461.236L256.939 460.752Z" fill="#FEC106"/>
<path d="M273 455.292L275.528 460.414L281.18 461.235L277.092 465.222L278.057 470.853L273 468.195L267.945 470.853L268.911 465.222L264.82 461.235L270.471 460.414L273 455.292Z" fill="#9BAED3"/>
<path d="M277.847 460.752C275.128 465.772 270.407 467.543 268.418 468.088L267.944 470.854L273 468.196L278.057 470.854L277.092 465.223L281.18 461.236L277.847 460.752Z" fill="#9BAED3"/>
<path d="M293.907 455.292L296.437 460.414L302.088 461.235L297.997 465.222L298.963 470.853L293.907 468.195L288.85 470.853L289.817 465.222L285.725 461.235L291.38 460.414L293.907 455.292Z" fill="#9BAED3"/>
<path d="M298.754 460.752C296.036 465.772 291.313 467.543 289.324 468.088L288.849 470.854L293.906 468.196L298.963 470.854L297.997 465.223L302.088 461.236L298.754 460.752Z" fill="#9BAED3"/>
<path d="M206.577 241.993C206.577 267.13 226.956 287.508 252.091 287.508C277.229 287.508 297.604 267.131 297.604 241.993C297.604 216.856 277.229 196.478 252.091 196.478C226.956 196.479 206.577 216.856 206.577 241.993Z" fill="#7FABE3"/>
<path d="M255.307 241.218C263.115 239.374 267.95 231.55 266.106 223.742C264.263 215.934 256.438 211.098 248.63 212.942C240.822 214.786 235.987 222.61 237.831 230.418C239.675 238.226 247.499 243.061 255.307 241.218Z" fill="white"/>
<path d="M227.826 267.443C228.193 254.343 238.904 243.83 252.092 243.83C265.284 243.83 275.991 254.344 276.358 267.443H227.826Z" fill="white"/>
<path opacity="0.2" d="M886.483 196.667H846.396C841.588 196.667 837.693 200.563 837.693 205.37V506.34C837.693 511.147 841.589 515.043 846.396 515.043H886.483V196.667Z" fill="black"/>
<path d="M868.936 526.734H681.767C676.514 526.734 672.256 522.478 672.256 517.226V188.363C672.256 183.111 676.514 178.853 681.767 178.853H868.936C874.188 178.853 878.446 183.111 878.446 188.363V517.226C878.446 522.478 874.188 526.734 868.936 526.734Z" fill="white"/>
<path d="M804.885 457.78H845.436C847.459 457.78 849.102 455.9 849.102 453.582C849.102 451.265 847.459 449.385 845.436 449.385H804.885C802.86 449.385 801.217 451.265 801.217 453.582C801.217 455.9 802.86 457.78 804.885 457.78Z" fill="#9BAED3"/>
<path d="M848.625 362.111H736.716C736.452 362.111 736.238 361.897 736.238 361.633V354.745C736.238 354.481 736.452 354.268 736.716 354.268H848.625C848.888 354.268 849.102 354.482 849.102 354.745V361.633C849.102 361.897 848.888 362.111 848.625 362.111Z" fill="#9BAED3"/>
<path d="M724.491 368.973H704.729C704.483 368.973 704.28 368.772 704.28 368.523V347.856C704.28 347.608 704.483 347.406 704.729 347.406H724.491C724.74 347.406 724.94 347.608 724.94 347.856V368.523C724.94 368.772 724.74 368.973 724.491 368.973Z" fill="#9BAED3"/>
<path d="M848.625 393.48H736.716C736.452 393.48 736.238 393.266 736.238 393.002V386.114C736.238 385.85 736.452 385.636 736.716 385.636H848.625C848.888 385.636 849.102 385.85 849.102 386.114V393.002C849.102 393.266 848.888 393.48 848.625 393.48Z" fill="#9BAED3"/>
<path d="M724.491 400.341H704.729C704.483 400.341 704.28 400.14 704.28 399.892V379.224C704.28 378.976 704.483 378.775 704.729 378.775H724.491C724.74 378.775 724.94 378.976 724.94 379.225V399.892C724.94 400.141 724.74 400.341 724.491 400.341Z" fill="#9BAED3"/>
<path d="M848.625 424.849H736.716C736.452 424.849 736.238 424.635 736.238 424.371V417.484C736.238 417.22 736.452 417.007 736.716 417.007H848.625C848.888 417.007 849.102 417.22 849.102 417.484V424.371C849.102 424.635 848.888 424.849 848.625 424.849Z" fill="#9BAED3"/>
<path d="M724.491 431.71H704.729C704.483 431.71 704.28 431.51 704.28 431.261V410.593C704.28 410.346 704.483 410.144 704.729 410.144H724.491C724.74 410.144 724.94 410.346 724.94 410.593V431.261C724.94 431.51 724.74 431.71 724.491 431.71Z" fill="#9BAED3"/>
<path d="M847.517 325.349H701.844C701.706 325.349 701.6 325.24 701.6 325.104V321.674C701.6 321.538 701.706 321.429 701.844 321.429H847.517C847.653 321.429 847.762 321.538 847.762 321.674V325.104C847.762 325.24 847.653 325.349 847.517 325.349Z" fill="#9BAED3"/>
<path d="M729.661 475.818L732.422 481.416L738.601 482.314L734.129 486.67L735.184 492.822L729.661 489.918L724.136 492.822L725.193 486.67L720.721 482.314L726.899 481.416L729.661 475.818Z" fill="#FFE007"/>
<path d="M734.958 481.785C731.987 487.269 726.828 489.205 724.654 489.801L724.135 492.822L729.66 489.918L735.182 492.822L734.127 486.67L738.599 482.315L734.958 481.785Z" fill="#FEC106"/>
<path d="M752.504 475.818L755.267 481.416L761.445 482.314L756.974 486.67L758.031 492.822L752.504 489.918L746.982 492.822L748.036 486.67L743.566 482.314L749.743 481.416L752.504 475.818Z" fill="#FFE007"/>
<path d="M757.803 481.785C754.831 487.269 749.671 489.205 747.497 489.801L746.981 492.822L752.503 489.918L758.029 492.822L756.972 486.67L761.443 482.315L757.803 481.785Z" fill="#FEC106"/>
<path d="M775.35 475.818L778.115 481.416L784.289 482.314L779.822 486.67L780.876 492.822L775.35 489.918L769.827 492.822L770.881 486.67L766.412 482.314L772.587 481.416L775.35 475.818Z" fill="#FFE007"/>
<path d="M780.649 481.785C777.676 487.269 772.516 489.205 770.343 489.801L769.826 492.822L775.349 489.918L780.875 492.822L779.82 486.67L784.288 482.315L780.649 481.785Z" fill="#FEC106"/>
<path d="M798.198 475.818L800.958 481.416L807.134 482.314L802.666 486.67L803.721 492.822L798.198 489.918L792.67 492.822L793.725 486.67L789.257 482.314L795.432 481.416L798.198 475.818Z" fill="#9BAED3"/>
<path d="M803.493 481.785C800.52 487.269 795.361 489.205 793.191 489.801L792.67 492.822L798.197 489.918L803.72 492.822L802.665 486.67L807.133 482.315L803.493 481.785Z" fill="#9BAED3"/>
<path d="M821.041 475.818L823.803 481.416L829.982 482.314L825.51 486.67L826.565 492.822L821.041 489.918L815.516 492.822L816.571 486.67L812.102 482.314L818.278 481.416L821.041 475.818Z" fill="#9BAED3"/>
<path d="M826.336 481.785C823.368 487.269 818.209 489.205 816.035 489.801L815.515 492.822L821.04 489.918L826.563 492.822L825.508 486.67L829.98 482.315L826.336 481.785Z" fill="#9BAED3"/>
<path d="M824.047 243.33C824.047 270.224 802.245 292.026 775.35 292.026C748.457 292.026 726.654 270.224 726.654 243.33C726.654 216.435 748.458 194.634 775.35 194.634C802.245 194.634 824.047 216.436 824.047 243.33Z" fill="#80D3FB"/>
<path d="M782.522 248.617L766.797 248.091C766.195 248.07 765.764 247.501 765.906 246.916L768.839 234.94C768.945 234.504 769.346 234.203 769.794 234.218L780.619 234.58C781.071 234.595 781.451 234.929 781.524 235.376L783.491 247.516C783.587 248.107 783.12 248.638 782.522 248.617Z" fill="#FFCBA6"/>
<path d="M781.525 235.377C781.452 234.93 781.072 234.596 780.62 234.581L775.459 234.408L769.795 234.218C769.347 234.203 768.946 234.504 768.84 234.94L768.056 238.139L767.921 238.693C770.016 241.105 774.4 242.355 775.81 243.133C777.169 243.885 780.656 242.284 782.371 240.595L781.525 235.377Z" fill="#CD9797"/>
<path d="M800.467 271.979C801.593 260.544 799.576 254.265 797.904 251.179C794.405 249.197 785.767 245.885 785.767 245.885L782.867 242.984C782.867 242.984 774.609 255.131 767.356 241.105L763.763 243.951C763.763 243.951 759.396 245.358 753.228 249.403C752.308 250.479 751.532 251.745 751.357 253.087C751.104 255.023 750.274 262.863 750.417 271.979H800.467Z" fill="white"/>
<path d="M779.932 271.979C778.37 261.284 776.942 252.059 776.942 252.059L779.366 248.885C778.357 248.218 777.492 247.848 776.743 247.675C776.027 247.857 775.271 247.912 774.487 247.802C773.181 248.36 772.714 249.657 772.714 249.657L774.78 251.868C774.78 251.868 773.75 261.103 772.654 271.98L779.932 271.979Z" fill="#CF4E61"/>
<path d="M801.347 271.979C803.342 254.506 797.292 249.864 796.225 248.797C792.852 247.615 788.391 246.508 786.584 246.076C785.543 250.489 784.399 260.548 783.338 271.978H801.347V271.979Z" fill="#323641"/>
<path d="M770.756 271.979C767.624 256.218 763.764 243.951 763.764 243.951C763.764 243.951 761.032 244.455 756.995 246.166C756.931 246.204 751.842 249.362 751.357 253.087C751.104 255.023 750.27 262.863 750.413 271.979H770.756Z" fill="#323641"/>
<path d="M758.313 271.979C758.762 271.231 759.227 270.539 759.724 269.953C769.324 258.601 756.856 246.15 756.856 246.15L752.833 247.59C751.229 248.165 749.956 249.323 749.328 250.797C747.845 254.276 745.072 261.559 742.792 271.978H758.313V271.979Z" fill="#323641"/>
<path d="M774.826 248.554C774.826 248.554 778.454 247.604 779.908 249.858C781.357 252.112 784.198 252.898 784.771 244.887L782.868 242.983C782.868 242.983 774.677 253.677 767.357 240.932L763.764 243.95L764.662 248.553C764.662 248.553 769.025 254.426 774.826 248.554Z" fill="#EBF4F7"/>
<path d="M794.191 271.979H807.912C804.716 258.421 800.968 250.824 800.968 250.824L795.704 248.618C795.704 248.618 785.245 260.878 793.708 271.314C793.871 271.518 794.032 271.754 794.191 271.979Z" fill="#323641"/>
<path d="M750.417 271.979H753.787C752.568 266.606 751.495 261.122 750.983 256.656C750.666 260.219 750.321 265.81 750.417 271.979Z" fill="#2C2F38"/>
<path d="M763.544 227.897C763.544 227.897 763.544 234.301 766.84 237.697C770.14 241.093 771.986 242.16 773.44 242.547C774.893 242.935 778.291 242.354 778.874 241.577C779.455 240.801 784.21 237.794 785.083 235.562C785.956 233.33 786.831 229.643 786.731 227.799C786.731 227.799 785.762 225.762 786.247 222.948C786.247 222.948 783.821 221.104 783.434 219.261C783.434 219.261 777.903 222.754 774.409 217.902C774.409 217.902 773.925 219.551 774.507 220.522C774.507 220.522 772.76 219.551 772.373 218C772.373 218 770.433 221.007 765.871 220.425C765.871 220.425 765.871 221.784 764.03 223.141C764.03 223.143 764.998 226.054 763.544 227.897Z" fill="#FFCBA6"/>
<path d="M790.226 213.812L791.291 213.723C791.001 212.483 789.351 211.863 789.351 211.863L790.515 211.421C790.515 211.421 788.577 211.598 786.83 208.674C785.082 205.75 779.746 206.105 779.746 206.105C773.828 201.853 767.52 204.688 765.191 207.434C762.863 210.181 758.4 214.078 758.4 214.078C759.275 214.344 759.952 214.344 759.952 214.344C758.206 216.912 760.633 218.862 760.633 218.862C760.729 220.368 761.798 224.355 761.798 224.355C763.832 225.949 763.544 227.898 763.544 227.898C764.998 226.055 764.029 223.144 764.029 223.144C765.87 221.786 765.87 220.428 765.87 220.428C770.432 221.009 772.372 218.003 772.372 218.003C772.759 219.555 774.506 220.525 774.506 220.525C773.924 219.554 774.408 217.905 774.408 217.905C777.902 222.757 783.433 219.264 783.433 219.264C783.82 221.107 786.246 222.951 786.246 222.951C785.762 225.764 786.73 227.802 786.73 227.802C786.73 227.804 786.73 227.808 786.73 227.811C787.411 225.419 788.379 224.356 788.379 224.356C789.641 222.939 789.836 219.306 789.836 219.306C793.234 215.407 790.226 213.812 790.226 213.812Z" fill="#1A1941"/>
<path d="M763.544 227.897C763.544 227.897 763.832 225.763 761.798 224.017C761.798 224.017 759.664 225.473 760.923 228.868C762.185 232.263 763.932 231.584 763.932 231.584L763.954 231.517C763.544 229.495 763.544 227.897 763.544 227.897Z" fill="#FFCBA6"/>
<path d="M788.373 224.025C788.337 224.07 787.396 225.232 786.73 227.799C786.772 228.585 786.63 229.71 786.395 230.909C786.737 230.938 788.826 230.964 789.449 227.314C789.759 225.501 789.139 224.54 788.373 224.025Z" fill="#FFCBA6"/>
<path d="M788.041 224.743L787.959 224.661C787.617 225.255 787.126 226.273 786.73 227.8C786.761 228.391 786.69 229.174 786.552 230.035C786.94 229.999 787.338 229.286 787.264 228.625C787.167 227.752 787.702 227.704 788.284 227.315C788.867 226.927 787.653 226.443 788.138 225.812C788.623 225.181 789.061 226.685 789.061 226.685C789.545 225.812 788.041 224.743 788.041 224.743Z" fill="#FAA06E"/>
<path d="M762.997 225.501C762.101 225.179 761.157 226.316 761.067 226.782C760.922 227.558 761.456 227.558 761.601 226.88C761.747 226.199 762.039 226.199 762.426 226.443C762.815 226.685 762.328 228.044 762.524 229.208C762.649 229.972 763.337 230.417 763.796 230.637C763.543 229.053 763.543 227.898 763.543 227.898C763.543 227.898 763.683 226.779 762.997 225.501Z" fill="#FAA06E"/>
<path opacity="0.2" d="M337.739 183.514H288.209C287.808 184.569 287.562 185.702 287.562 186.898V501.891H337.74C342.547 501.891 346.445 497.995 346.445 493.188V192.218C346.444 187.41 342.545 183.514 337.739 183.514Z" fill="black"/>
<path d="M488.255 525.269H301.088C295.836 525.269 291.578 521.011 291.578 515.759V186.897C291.578 181.645 295.836 177.388 301.086 177.388H488.255C493.507 177.388 497.766 181.645 497.766 186.897V515.759C497.766 521.011 493.507 525.269 488.255 525.269Z" fill="white"/>
<path d="M424.207 456.313H464.755C466.783 456.313 468.425 454.435 468.425 452.117C468.425 449.799 466.783 447.92 464.755 447.92H424.207C422.182 447.92 420.539 449.799 420.539 452.117C420.539 454.435 422.182 456.313 424.207 456.313Z" fill="#9BAED3"/>
<path d="M467.948 360.645H356.04C355.776 360.645 355.563 360.431 355.563 360.167V353.28C355.563 353.016 355.776 352.803 356.04 352.803H467.948C468.213 352.803 468.426 353.016 468.426 353.28V360.167C468.425 360.431 468.212 360.645 467.948 360.645Z" fill="#9BAED3"/>
<path d="M343.815 367.507H324.052C323.803 367.507 323.604 367.305 323.604 367.057V346.389C323.604 346.141 323.803 345.94 324.052 345.94H343.815C344.062 345.94 344.263 346.141 344.263 346.389V367.057C344.263 367.306 344.062 367.507 343.815 367.507Z" fill="#9BAED3"/>
<path d="M467.948 392.014H356.04C355.776 392.014 355.563 391.8 355.563 391.536V384.649C355.563 384.385 355.776 384.172 356.04 384.172H467.948C468.213 384.172 468.426 384.385 468.426 384.649V391.536C468.425 391.8 468.212 392.014 467.948 392.014Z" fill="#9BAED3"/>
<path d="M343.815 398.876H324.052C323.803 398.876 323.604 398.675 323.604 398.427V377.759C323.604 377.511 323.803 377.31 324.052 377.31H343.815C344.062 377.31 344.263 377.512 344.263 377.759V398.427C344.263 398.674 344.062 398.876 343.815 398.876Z" fill="#9BAED3"/>
<path d="M467.948 423.383H356.04C355.776 423.383 355.563 423.169 355.563 422.905V416.018C355.563 415.754 355.776 415.54 356.04 415.54H467.948C468.213 415.54 468.426 415.754 468.426 416.018V422.905C468.425 423.17 468.212 423.383 467.948 423.383Z" fill="#9BAED3"/>
<path d="M343.815 430.245H324.052C323.803 430.245 323.604 430.044 323.604 429.796V409.128C323.604 408.879 323.803 408.678 324.052 408.678H343.815C344.062 408.678 344.263 408.879 344.263 409.128V429.796C344.263 430.044 344.062 430.245 343.815 430.245Z" fill="#9BAED3"/>
<path d="M466.838 323.884H321.166C321.03 323.884 320.92 323.774 320.92 323.638V320.208C320.92 320.073 321.03 319.962 321.166 319.962H466.838C466.974 319.962 467.082 320.072 467.082 320.208V323.639C467.082 323.774 466.974 323.884 466.838 323.884Z" fill="#9BAED3"/>
<path d="M348.981 474.353L351.745 479.951L357.921 480.847L353.453 485.205L354.508 491.355L348.981 488.453L343.457 491.355L344.512 485.205L340.044 480.847L346.219 479.951L348.981 474.353Z" fill="#FFE007"/>
<path d="M354.28 480.318C351.308 485.802 346.149 487.74 343.975 488.334L343.457 491.355L348.98 488.453L354.507 491.355L353.452 485.205L357.92 480.848L354.28 480.318Z" fill="#FEC106"/>
<path d="M371.828 474.353L374.59 479.951L380.766 480.847L376.297 485.205L377.352 491.355L371.828 488.453L366.302 491.355L367.357 485.205L362.888 480.847L369.063 479.951L371.828 474.353Z" fill="#FFE007"/>
<path d="M377.123 480.318C374.151 485.802 368.992 487.74 366.821 488.334L366.301 491.355L371.827 488.453L377.35 491.355L376.295 485.205L380.764 480.848L377.123 480.318Z" fill="#FEC106"/>
<path d="M394.672 474.353L397.434 479.951L403.613 480.847L399.141 485.205L400.196 491.355L394.672 488.453L389.148 491.355L390.203 485.205L385.733 480.847L391.911 479.951L394.672 474.353Z" fill="#FFE007"/>
<path d="M399.968 480.318C397 485.802 391.84 487.74 389.666 488.334L389.147 491.355L394.671 488.453L400.194 491.355L399.139 485.205L403.611 480.848L399.968 480.318Z" fill="#FEC106"/>
<path d="M417.517 474.353L420.279 479.951L426.457 480.847L421.987 485.205L423.043 491.355L417.517 488.453L411.994 491.355L413.049 485.205L408.577 480.847L414.756 479.951L417.517 474.353Z" fill="#FFE007"/>
<path d="M422.814 480.318C419.844 485.802 414.684 487.74 412.51 488.334L411.994 491.355L417.516 488.453L423.042 491.355L421.985 485.205L426.456 480.848L422.814 480.318Z" fill="#FEC106"/>
<path d="M440.362 474.353L443.124 479.951L449.301 480.847L444.833 485.205L445.888 491.355L440.362 488.453L434.838 491.355L435.893 485.205L431.424 480.847L437.6 479.951L440.362 474.353Z" fill="#9BAED3"/>
<path d="M445.661 480.318C442.688 485.802 437.529 487.74 435.355 488.334L434.838 491.355L440.361 488.453L445.887 491.355L444.832 485.205L449.3 480.848L445.661 480.318Z" fill="#9BAED3"/>
<path d="M443.369 243.33C443.369 270.224 421.564 292.026 394.672 292.026C367.777 292.026 345.977 270.224 345.977 243.33C345.977 216.435 367.778 194.634 394.672 194.634C421.565 194.634 443.369 216.436 443.369 243.33Z" fill="#80D3FB"/>
<path d="M386.513 208.484C386.513 208.484 382.428 206.343 379.338 214.646C376.246 222.948 376.115 235.899 377.248 240.314C377.248 240.314 368.244 250.1 375.631 256.525C375.631 256.525 385.819 267.334 386.493 270.113C386.755 269.463 391.096 261.548 398.161 261.123C405.226 260.698 422.598 242.275 413.305 239.386C413.305 239.386 414.004 242.373 410.834 241.649C407.664 240.924 409.635 229.918 409.596 226.023C409.553 222.129 407.208 212.526 400.442 208.439C393.677 204.353 385.896 204.621 386.513 208.484Z" fill="#131025"/>
<path d="M397.944 234.173C397.944 234.173 399.755 239.451 400.384 240.395C400.384 240.395 401.358 242.926 398.496 250.081C395.635 257.236 388.391 253.241 387.232 251.288C386.074 249.335 383.515 245.598 385.849 241.881C385.849 241.881 389.045 239.561 387.376 234.518C387.376 234.518 397.438 232.488 397.944 234.173Z" fill="#EAA87A"/>
<path d="M385.584 232.987C385.584 232.987 390.496 238.275 394.623 237.6C399.073 236.871 402.529 231.642 403.596 227.808C404.662 223.976 402.899 216.274 400.251 213.528C397.602 210.783 387.785 208.963 385.037 212.524C382.29 216.085 380.434 228.878 385.584 232.987Z" fill="#FCC596"/>
<path d="M395.642 271.766H412.475C410.123 249.745 401.418 239.769 401.418 239.769C397.006 244.361 387.898 240.335 387.898 240.335C387.685 240.724 387.667 240.88 387.802 241.145C394.337 253.801 396.223 263.85 395.642 271.766Z" fill="white"/>
<path d="M376.686 271.766H400.04C402.476 254.133 387.629 240.222 387.629 240.222C387.629 240.222 384.1 240.586 379.733 242.173C376.378 244.307 372.168 248.098 373.483 253.177C374.59 257.452 376.047 264.711 376.686 271.766Z" fill="#FF77C4"/>
<path d="M373.521 253.32C373.575 253.537 373.631 253.758 373.689 253.989C373.713 254.084 373.737 254.186 373.76 254.285C373.807 254.479 373.856 254.673 373.903 254.876C373.928 254.974 373.951 255.078 373.974 255.179C374.024 255.39 374.074 255.601 374.123 255.821C374.144 255.923 374.17 256.029 374.191 256.134C374.244 256.361 374.294 256.588 374.343 256.823C374.366 256.925 374.39 257.03 374.411 257.133C374.464 257.379 374.517 257.626 374.567 257.879C374.588 257.978 374.61 258.079 374.631 258.179C374.684 258.444 374.739 258.711 374.794 258.985C374.813 259.079 374.83 259.175 374.852 259.27C374.906 259.554 374.962 259.84 375.019 260.131C375.034 260.223 375.051 260.315 375.069 260.408C375.127 260.709 375.184 261.013 375.237 261.321C375.255 261.407 375.269 261.493 375.286 261.579C375.343 261.898 375.397 262.219 375.454 262.543C375.47 262.624 375.483 262.703 375.495 262.783C375.553 263.12 375.607 263.458 375.665 263.801C375.676 263.872 375.686 263.944 375.698 264.015C375.754 264.367 375.811 264.721 375.864 265.078C375.876 265.144 375.885 265.211 375.894 265.276C375.95 265.641 376.002 266.007 376.052 266.377C376.063 266.437 376.071 266.497 376.081 266.557C376.131 266.936 376.184 267.316 376.234 267.698C376.238 267.749 376.244 267.8 376.252 267.85C376.304 268.247 376.352 268.645 376.398 269.045C376.403 269.079 376.408 269.113 376.413 269.148C376.46 269.564 376.506 269.98 376.549 270.397C376.552 270.418 376.556 270.438 376.556 270.457C376.603 270.894 376.645 271.331 376.685 271.767H382.082C378.598 264.175 374.411 251.268 380.515 241.898C380.369 241.948 380.219 242.002 380.07 242.055C379.956 242.095 379.845 242.133 379.732 242.174C378.473 242.975 377.094 244.008 375.932 245.255C374.382 246.917 373.219 248.959 373.236 251.334C373.239 251.928 373.318 252.543 373.482 253.177C373.496 253.222 373.507 253.274 373.521 253.32Z" fill="#DB52A3"/>
<path d="M387.001 240.201L395.079 246.763L396.369 242.089L389.891 240.297L387.001 240.201Z" fill="#9BD4DF"/>
<path d="M401.418 239.769L396.677 241.904L401.158 246.967C401.158 246.967 403.332 241.787 401.418 239.769Z" fill="#9BD4DF"/>
<path d="M416.352 271.766C416.708 266.642 416.685 261.374 416.084 255.214C416.084 255.214 415.318 249.833 414.082 244.989C413.728 243.596 412.949 241.593 411.532 241.145C408.405 240.155 404.837 240.269 401.418 239.77C401.418 239.77 405.038 254.166 407.571 271.766H416.352Z" fill="#FF77C4"/>
<path d="M416.583 265.781C416.587 265.053 416.583 264.313 416.568 263.567C416.565 263.303 416.557 263.035 416.55 262.769C416.536 262.187 416.515 261.599 416.489 261.002C416.478 260.735 416.465 260.467 416.452 260.196C416.415 259.458 416.369 258.708 416.311 257.945C416.303 257.852 416.3 257.763 416.293 257.671C414.007 264.719 411.14 271.402 411.14 271.402C411.261 271.504 411.386 271.636 411.511 271.767H416.346C416.352 271.679 416.361 271.593 416.364 271.506C416.389 271.174 416.407 270.839 416.425 270.505C416.45 270.064 416.474 269.62 416.493 269.175C416.507 268.851 416.521 268.527 416.532 268.201C416.55 267.619 416.564 267.032 416.571 266.44C416.577 266.22 416.579 266.002 416.583 265.781Z" fill="#DB52A3"/>
<path d="M414.275 271.766H426.44C424.519 263.078 420.867 251.821 417.513 246.576C416.59 245.129 415.395 243.853 414.046 242.727C412.133 241.131 409.35 241.27 407.504 243.173C404.579 246.187 405.943 250.213 406.086 251.367C406.244 252.614 411.954 264.569 414.275 271.766Z" fill="#FF77C4"/>
<path d="M375.307 271.766C377.927 264.558 382.7 254.56 382.846 253.424C382.995 252.269 384.371 248.248 381.457 245.226C379.614 243.319 376.831 243.171 374.914 244.762C373.56 245.884 372.362 247.156 371.433 248.6C368.321 253.443 364.938 263.424 362.907 271.767L375.307 271.766Z" fill="#FF77C4"/>
<path d="M380.972 246.881C380.972 246.881 377.038 248.41 374.793 245.338C372.549 242.265 376.3 240.428 376.3 240.428C376.3 240.428 373.862 243.527 377.426 243.924C380.987 244.32 380.996 238.288 379.739 234.957C376.105 225.337 378.186 219.02 379.846 215.581C381.51 212.141 384.479 209.626 384.479 209.626L386.513 208.485L387.931 211.978C387.931 211.978 385.376 215.925 384.086 219.568C382.796 223.211 382.254 227.892 385.308 233.936C388.362 239.979 389.135 245.912 380.972 246.881Z" fill="#1C183C"/>
<path d="M387.931 211.977L386.513 208.484C386.513 208.484 382.429 206.343 379.338 214.646C378.277 217.498 377.726 220.923 377.506 224.367C378.912 229.536 382.882 235.499 385.045 240.563C387.775 246.955 379.457 245.23 379.457 245.23C379.457 245.23 382.236 249.969 386.395 246.332C390.969 242.334 386.958 235.71 385.202 232.244C383.446 228.777 383.727 222.217 385.394 218.49C387.062 214.764 387.931 211.977 387.931 211.977Z" fill="#232147"/>
<path d="M387.931 211.977C387.931 211.977 397.231 209.508 401.932 220.892C406.631 232.275 399.932 237.498 401.12 241.007C402.308 244.516 405.476 245.026 408.191 241.425C408.191 241.425 404.853 243.595 404.348 241.135C403.843 238.677 409.395 235.088 408.869 225.707C408.683 222.413 408.148 219.577 407.532 217.281C406.093 213.89 403.819 210.478 400.441 208.439C393.676 204.353 385.895 204.621 386.512 208.484L387.931 211.977Z" fill="#1C183C"/>
<path opacity="0.2" d="M714.221 178.854H681.767C676.514 178.854 672.256 183.112 672.256 188.364V517.227C672.256 522.479 676.514 526.735 681.767 526.735H714.221V178.854Z" fill="black"/>
<path opacity="0.2" d="M488.255 177.388H470.984V525.269H488.255C493.507 525.269 497.766 521.011 497.766 515.759V186.897C497.766 181.646 493.507 177.388 488.255 177.388Z" fill="black"/>
<path d="M694.406 537.478H485.612C479.754 537.478 475.005 532.728 475.005 526.869V160.007C475.005 154.148 479.754 149.398 485.612 149.398H694.406C700.264 149.398 705.014 154.148 705.014 160.007V526.868C705.014 532.728 700.266 537.478 694.406 537.478Z" fill="white"/>
<path d="M590.736 275.549C620.734 275.153 644.732 250.513 644.336 220.514C643.94 190.515 619.3 166.517 589.302 166.913C559.304 167.309 535.306 191.949 535.702 221.948C536.098 251.947 560.738 275.945 590.736 275.549Z" fill="#F26B6B"/>
<path d="M597.896 227.959L580 227.359C579.312 227.336 578.824 226.688 578.986 226.022L582.323 212.393C582.444 211.896 582.899 211.553 583.41 211.57L595.728 211.984C596.245 212.001 596.675 212.38 596.759 212.89L598.998 226.706C599.108 227.379 598.577 227.982 597.896 227.959Z" fill="#FFCBA6"/>
<path d="M596.759 212.89C596.675 212.38 596.244 212.001 595.728 211.984L589.855 211.787L583.41 211.571C582.899 211.554 582.444 211.897 582.323 212.394L581.432 216.034L581.279 216.665C583.663 219.41 588.651 220.832 590.255 221.719C591.802 222.574 595.768 220.752 597.724 218.83L596.759 212.89Z" fill="#CD9797"/>
<path d="M574.715 203.962C574.715 203.962 572.1 202.383 571.914 205.246C571.728 208.109 574.087 211.867 576.446 210.494C578.805 209.119 574.715 203.962 574.715 203.962Z" fill="#FFCBA6"/>
<path d="M576.447 210.493C576.63 210.387 576.767 210.256 576.878 210.108C575.646 209.689 574.833 210.27 573.889 207.522C573.102 205.226 574.584 205.052 575.56 205.15C575.097 204.444 574.716 203.961 574.716 203.961C574.716 203.961 572.101 202.382 571.915 205.245C571.729 208.108 574.087 211.866 576.447 210.493Z" fill="#F4BA92"/>
<path d="M575.072 208.194C575.072 208.194 573.389 206.752 573.53 205.591C573.671 204.431 571.679 206.807 575.072 208.194Z" fill="#13172D"/>
<path d="M603.879 203.582C603.879 203.582 606.449 201.931 606.713 204.786C606.981 207.642 604.729 211.466 602.33 210.159C599.936 208.853 603.879 203.582 603.879 203.582Z" fill="#FFCBA6"/>
<path d="M603.642 207.824C603.642 207.824 605.282 206.334 605.11 205.178C604.939 204.022 606.995 206.341 603.642 207.824Z" fill="#13172D"/>
<path d="M573.525 196.274C573.525 196.274 574.947 213.775 583.036 218.492C591.223 223.266 595.928 220.65 599.362 215.963C602.798 211.275 605.801 198.434 605.01 196.465C604.222 194.497 576.794 190.349 573.525 196.274Z" fill="#FFCBA6"/>
<path d="M576.088 202.337C579.817 200.765 580.611 195.565 580.611 195.565L580.216 193.463C576.927 193.85 574.386 194.712 573.524 196.273C573.524 196.273 574.946 213.774 583.035 218.491C584.613 219.411 586.06 220.054 587.396 220.464C577.426 216.102 576.088 202.337 576.088 202.337Z" fill="#F4BA92"/>
<path d="M574.177 201.446C574.605 201.432 577.868 201.121 579.811 194.964C579.829 194.904 579.907 194.893 579.939 194.946C580.242 195.466 581.35 197.283 582.226 197.75C582.28 197.779 582.344 197.727 582.327 197.666C582.116 196.927 581.244 193.721 582.129 193.78C583.127 193.845 586.389 198.311 601.127 194.828C601.177 194.816 601.223 194.858 601.216 194.91C601.087 195.659 600.514 200.134 604.503 201.78C604.538 201.795 604.58 201.78 604.598 201.744C605.003 200.852 609.55 190.54 605.279 183.704C600.816 176.56 585.499 171.8 577.799 182.456C577.785 182.475 577.768 182.485 577.741 182.485C577.349 182.482 573.751 182.618 573.22 188.357C572.659 194.382 573.305 199.766 574.11 201.405C574.123 201.432 574.149 201.447 574.177 201.446Z" fill="#1B1941"/>
<g opacity="0.19">
<path d="M573.343 189.376C573.874 183.636 577.469 183.501 577.865 183.504C577.886 183.504 577.907 183.492 577.922 183.474C585.62 172.818 600.938 177.578 605.402 184.722C606.274 186.121 606.781 187.666 607.027 189.246C606.855 187.316 606.339 185.404 605.277 183.705C600.814 176.561 585.497 171.801 577.797 182.457C577.783 182.476 577.766 182.486 577.739 182.486C577.347 182.483 573.749 182.619 573.218 188.358C572.861 192.198 572.996 195.775 573.345 198.291C573.094 195.872 573.034 192.724 573.343 189.376Z" fill="#BAB9B8"/>
</g>
<path d="M604.502 201.781C604.537 201.796 604.579 201.781 604.597 201.745C604.813 201.269 606.204 198.121 606.813 194.248C604.048 197.494 602.811 193.512 602.811 193.512C593.518 196.646 585.813 188.889 585.813 188.889C586.42 190.818 590.23 194.106 590.23 194.106C587.073 194.678 581.221 190.904 581.221 190.904C578.666 195.841 575.107 190.931 573.291 187.744C573.265 187.942 573.239 188.144 573.219 188.357C572.658 194.382 573.304 199.766 574.109 201.405C574.124 201.431 574.149 201.446 574.177 201.445C574.605 201.431 577.868 201.12 579.811 194.963C579.829 194.903 579.907 194.892 579.939 194.945C580.242 195.465 581.35 197.282 582.226 197.749C582.28 197.778 582.344 197.726 582.327 197.665C582.116 196.926 581.244 193.72 582.129 193.779C583.127 193.844 586.389 198.31 601.127 194.827C601.177 194.815 601.223 194.857 601.216 194.909C601.086 195.659 600.513 200.134 604.502 201.781Z" fill="#16143C"/>
<path d="M618.319 254.547C619.598 241.533 617.305 234.386 615.401 230.873C611.421 228.619 601.591 224.85 601.591 224.85L598.289 221.547C598.289 221.547 588.89 235.371 580.633 219.409L576.547 222.648C576.547 222.648 571.576 224.251 564.556 228.854C563.508 230.079 562.624 231.52 562.425 233.048C562.14 235.25 561.192 244.173 561.356 254.548L618.319 254.547Z" fill="white"/>
<path d="M594.944 254.547C593.17 242.374 591.545 231.875 591.545 231.875L594.304 228.263C593.153 227.503 592.168 227.084 591.322 226.886C590.504 227.093 589.643 227.156 588.752 227.031C587.267 227.667 586.732 229.142 586.732 229.142L589.084 231.658C589.084 231.658 587.912 242.169 586.664 254.548L594.944 254.547Z" fill="#CF4E61"/>
<path d="M619.321 254.547C621.591 234.66 614.706 229.378 613.491 228.163C609.651 226.818 604.576 225.558 602.52 225.067C601.332 230.089 600.032 241.539 598.824 254.547H619.321Z" fill="#323641"/>
<path d="M584.503 254.547C580.94 236.609 576.547 222.648 576.547 222.648C576.547 222.648 573.436 223.223 568.842 225.169C568.771 225.213 562.981 228.807 562.425 233.047C562.14 235.249 561.191 244.172 561.353 254.547H584.503Z" fill="#323641"/>
<path d="M570.343 254.547C570.852 253.695 571.383 252.907 571.947 252.242C582.874 239.322 568.686 225.151 568.686 225.151L564.107 226.791C562.282 227.445 560.831 228.763 560.116 230.441C558.428 234.4 555.274 242.689 552.677 254.547H570.343Z" fill="#323641"/>
<path d="M574.547 254.547H580.27C577.676 243.111 575.104 233.695 573.628 228.541C573.493 228.251 573.371 227.978 573.268 227.736C573.137 227.43 572.766 227.312 572.484 227.484C570.29 228.822 568.073 230.382 568.453 231.25C568.968 232.423 569.944 237.453 568.897 249.16C568.889 249.253 568.954 249.341 569.06 249.379L576.165 251.166C576.336 251.226 576.386 251.398 576.265 251.515L574.547 254.547Z" fill="#2C2F38"/>
<path d="M610.298 247.67C609.823 246.431 609.279 227.882 604.582 227.356C604.022 227.293 603.871 231.759 603.867 231.798C603.406 236.914 602.775 244.255 602.035 254.548H605.195C606.966 252.229 610.829 249.053 610.298 247.67Z" fill="#2C2F38"/>
<path d="M589.137 227.887C589.137 227.887 593.266 226.807 594.915 229.371C596.568 231.936 599.803 232.831 600.456 223.714L598.289 221.547C598.289 221.547 588.965 233.718 580.633 219.213L576.547 222.647L577.568 227.886C577.568 227.886 582.534 234.57 589.137 227.887Z" fill="#EBF4F7"/>
<path d="M611.175 254.547H626.792C623.154 239.116 618.889 230.47 618.889 230.47L612.896 227.958C612.896 227.958 600.993 241.912 610.625 253.79C610.813 254.022 610.994 254.29 611.175 254.547Z" fill="#323641"/>
<path d="M561.356 254.547H565.194C563.806 248.431 562.583 242.19 562.002 237.109C561.642 241.163 561.246 247.526 561.356 254.547Z" fill="#2C2F38"/>
<path d="M622.954 460.554H668.19C670.449 460.554 672.281 458.457 672.281 455.871C672.281 453.285 670.449 451.188 668.19 451.188H622.954C620.695 451.188 618.863 453.285 618.863 455.871C618.864 458.458 620.696 460.554 622.954 460.554Z" fill="#9BAED3"/>
<path d="M671.75 353.831H546.911C546.616 353.831 546.378 353.592 546.378 353.298V345.614C546.378 345.32 546.616 345.081 546.911 345.081H671.75C672.044 345.081 672.281 345.32 672.281 345.614V353.298C672.282 353.592 672.044 353.831 671.75 353.831Z" fill="#9BAED3"/>
<path d="M533.275 361.485H511.228C510.95 361.485 510.725 361.26 510.725 360.984V337.928C510.725 337.651 510.95 337.426 511.228 337.426H533.275C533.548 337.426 533.773 337.651 533.773 337.928V360.984C533.773 361.261 533.548 361.485 533.275 361.485Z" fill="#9BAED3"/>
<path d="M671.75 388.825H546.911C546.616 388.825 546.378 388.586 546.378 388.292V380.608C546.378 380.314 546.616 380.075 546.911 380.075H671.75C672.044 380.075 672.281 380.314 672.281 380.608V388.292C672.282 388.586 672.044 388.825 671.75 388.825Z" fill="#9BAED3"/>
<path d="M533.275 396.48H511.228C510.95 396.48 510.725 396.256 510.725 395.979V372.924C510.725 372.647 510.95 372.423 511.228 372.423H533.275C533.548 372.423 533.773 372.647 533.773 372.924V395.979C533.773 396.256 533.548 396.48 533.275 396.48Z" fill="#9BAED3"/>
<path d="M671.75 423.818H546.911C546.616 423.818 546.378 423.58 546.378 423.286V415.602C546.378 415.308 546.616 415.069 546.911 415.069H671.75C672.044 415.069 672.281 415.308 672.281 415.602V423.285C672.282 423.58 672.044 423.818 671.75 423.818Z" fill="#9BAED3"/>
<path d="M533.275 431.474H511.228C510.95 431.474 510.725 431.249 510.725 430.973V407.917C510.725 407.64 510.95 407.416 511.228 407.416H533.275C533.548 407.416 533.773 407.641 533.773 407.917V430.973C533.773 431.249 533.548 431.474 533.275 431.474Z" fill="#9BAED3"/>
<path d="M670.514 312.822H508.008C507.857 312.822 507.734 312.699 507.734 312.548V308.722C507.734 308.571 507.857 308.448 508.007 308.448H670.514C670.664 308.448 670.788 308.571 670.788 308.722V312.548C670.788 312.699 670.664 312.822 670.514 312.822Z" fill="#9BAED3"/>
<path d="M539.039 480.677L542.121 486.921L549.013 487.923L544.025 492.783L545.202 499.646L539.039 496.406L532.874 499.646L534.054 492.783L529.066 487.923L535.957 486.921L539.039 480.677Z" fill="#FFE007"/>
<path d="M544.948 487.332C541.634 493.451 535.88 495.611 533.456 496.275L532.875 499.646L539.04 496.406L545.203 499.646L544.025 492.783L549.013 487.924L544.948 487.332Z" fill="#FEC106"/>
<path d="M564.525 480.677L567.606 486.921L574.498 487.923L569.509 492.783L570.688 499.646L564.525 496.406L558.36 499.646L559.538 492.783L554.552 487.923L561.442 486.921L564.525 480.677Z" fill="#FFE007"/>
<path d="M570.432 487.332C567.118 493.451 561.364 495.611 558.941 496.275L558.36 499.646L564.525 496.406L570.688 499.646L569.509 492.783L574.498 487.924L570.432 487.332Z" fill="#FEC106"/>
<path d="M590.008 480.677L593.091 486.921L599.983 487.923L594.994 492.783L596.173 499.646L590.008 496.406L583.844 499.646L585.024 492.783L580.036 487.923L586.926 486.921L590.008 480.677Z" fill="#FFE007"/>
<path d="M595.916 487.332C592.603 493.451 586.848 495.611 584.425 496.275L583.844 499.646L590.008 496.406L596.173 499.646L594.993 492.783L599.982 487.924L595.916 487.332Z" fill="#FEC106"/>
<path d="M615.494 480.677L618.576 486.921L625.467 487.923L620.479 492.783L621.658 499.646L615.494 496.406L609.329 499.646L610.508 492.783L605.52 487.923L612.411 486.921L615.494 480.677Z" fill="#FFE007"/>
<path d="M621.401 487.332C618.088 493.451 612.333 495.611 609.91 496.275L609.33 499.646L615.494 496.406L621.658 499.646L620.479 492.783L625.467 487.924L621.401 487.332Z" fill="#FEC106"/>
<path d="M640.978 480.677L644.061 486.921L650.952 487.923L645.963 492.783L647.142 499.646L640.978 496.406L634.813 499.646L635.994 492.783L631.004 487.923L637.896 486.921L640.978 480.677Z" fill="#FFE007"/>
<path d="M646.886 487.332C643.572 493.451 637.817 495.611 635.395 496.275L634.813 499.646L640.978 496.406L647.142 499.646L645.963 492.783L650.951 487.924L646.886 487.332Z" fill="#FEC106"/>
<path d="M554.907 648.037C576.568 648.037 594.128 630.477 594.128 608.816C594.128 587.155 576.568 569.595 554.907 569.595C533.246 569.595 515.686 587.155 515.686 608.816C515.686 630.477 533.246 648.037 554.907 648.037Z" fill="#009748"/>
<path d="M546.392 626.84C544.598 626.84 542.823 626.053 541.628 624.561L529.949 609.961C528.456 608.094 528.759 605.373 530.622 603.879C532.489 602.389 535.212 602.69 536.705 604.555L546.828 617.211L577.797 593.871C579.703 592.433 582.415 592.814 583.855 594.723C585.293 596.631 584.913 599.342 583.003 600.78L549.868 625.749C548.815 626.484 547.598 626.84 546.392 626.84Z" fill="white"/>
<path d="M693.286 608.816C693.286 630.476 675.727 648.037 654.066 648.037C632.405 648.037 614.844 630.476 614.844 608.816C614.844 587.156 632.405 569.595 654.066 569.595C675.727 569.595 693.286 587.156 693.286 608.816Z" fill="#FF436E"/>
<path d="M659.87 608.816L670.364 594.318C671.856 592.252 671.298 589.433 669.117 588.019C666.932 586.605 663.954 587.132 662.457 589.197L654.065 600.795L645.669 589.197C644.177 587.133 641.194 586.605 639.013 588.019C636.829 589.433 636.27 592.251 637.766 594.318L648.26 608.816L637.766 623.316C636.27 625.38 636.829 628.199 639.013 629.613C641.195 631.027 644.177 630.5 645.669 628.435L654.065 616.837L662.457 628.435C663.954 630.499 666.933 631.027 669.117 629.613C671.298 628.199 671.856 625.381 670.364 623.316L659.87 608.816Z" fill="white"/>
<path d="M404.514 1101.46L402.099 1125.87C402.099 1125.87 425.984 1136.05 430.224 1131.21C434.461 1126.38 437.383 1127.65 437.383 1127.65L439.406 1096.76L404.514 1101.46Z" fill="#22313B"/>
<path d="M300.383 1093.98L301.87 1117.41L332.982 1115.84L336.671 1089.75L300.383 1093.98Z" fill="#22313B"/>
<path d="M310.53 795.175C307.946 769.726 308.146 730.589 308.456 710.917H463.912C465.558 711.952 466.815 713.06 467.567 714.265C480.134 734.396 470.91 909.175 464.977 957.199C459.043 1005.22 442.701 1108.19 442.701 1108.19C432.544 1111.12 417.307 1111.34 404.804 1112.46C400.86 1112.82 397.51 1109.78 397.616 1105.98L402.017 951.119C402.765 924.851 399.195 889.703 399.195 889.703C399.195 889.703 389.446 911.33 384.133 937.467C378.827 963.604 343.115 1097.19 338.303 1105.81C334.567 1112.51 312.617 1110.24 298.901 1110.2C295.357 1110.18 292.571 1107.29 292.88 1103.9C295.648 1073.44 310.548 968.296 315.43 944.278C320.743 918.14 314.1 830.328 310.53 795.175Z" fill="#3F4752"/>
<path d="M311.017 970.054C311.274 968.427 311.528 966.847 311.774 965.316C312.053 963.568 312.324 961.908 312.589 960.3C313.443 955.085 314.213 950.652 314.859 947.218C314.92 946.892 314.98 946.583 315.038 946.275C315.173 945.572 315.305 944.879 315.43 944.277C317.421 934.476 317.732 916.002 317.155 894.882C316.82 882.564 316.178 869.345 315.394 856.423C313.937 832.427 311.981 809.456 310.531 795.175C310.527 795.146 310.527 795.112 310.523 795.083C310.384 793.704 310.256 792.272 310.131 790.817C310.095 790.387 310.06 789.954 310.025 789.518C309.921 788.252 309.826 786.963 309.732 785.653C309.714 785.387 309.693 785.128 309.675 784.86C309.571 783.327 309.478 781.762 309.386 780.178C309.359 779.688 309.333 779.194 309.308 778.699C309.241 777.459 309.178 776.207 309.12 774.943C309.099 774.502 309.077 774.062 309.056 773.619C308.987 772.004 308.92 770.373 308.86 768.732C308.844 768.275 308.829 767.816 308.814 767.357C308.768 766.062 308.729 764.763 308.69 763.461C308.675 762.941 308.657 762.424 308.643 761.902C308.6 760.277 308.557 758.65 308.526 757.023C308.514 756.55 308.506 756.08 308.498 755.609C308.471 754.338 308.448 753.068 308.427 751.804C308.419 751.238 308.41 750.675 308.402 750.111C308.377 748.478 308.359 746.853 308.341 745.244C308.341 745.033 308.337 744.828 308.335 744.617C308.323 743.14 308.312 741.679 308.302 740.23C308.3 739.701 308.298 739.177 308.294 738.652C308.287 737.318 308.284 735.998 308.284 734.699C308.284 734.428 308.284 734.15 308.28 733.879C308.28 732.293 308.284 730.74 308.287 729.213C308.287 728.861 308.29 728.512 308.29 728.164C308.298 726.851 308.302 725.56 308.311 724.307C308.311 724.078 308.311 723.844 308.315 723.619C308.326 722.107 308.336 720.64 308.351 719.228C308.351 719.134 308.354 719.04 308.354 718.947C308.369 717.549 308.383 716.199 308.401 714.914C308.401 714.869 308.401 714.822 308.401 714.777C308.419 713.422 308.436 712.131 308.458 710.916H333.205C340.004 768.525 350.507 866.197 346.651 890.398C341.853 920.505 316.931 1060.87 309.865 1110.07C305.706 1110.18 301.884 1110.2 298.903 1110.19C295.359 1110.18 292.573 1107.28 292.883 1103.9C293.573 1096.28 295.024 1084 296.887 1069.49C297.351 1065.86 297.842 1062.09 298.356 1058.22C300.401 1042.74 302.774 1025.63 305.126 1009.34C305.423 1007.3 305.714 1005.27 306.007 1003.27C307.76 991.228 309.482 979.814 311.017 970.054Z" fill="#2F3740"/>
<path d="M413.405 791.527C408.345 808.91 397.083 894.738 397.083 894.738V894.746C398.368 891.551 399.195 889.701 399.195 889.701C399.195 889.701 402.765 924.851 402.017 951.119L397.616 1105.98C397.51 1109.77 400.859 1112.82 404.804 1112.46C415.248 1111.52 427.128 1110.85 439.073 1108.53C430.531 1106.82 417.347 1100.84 413.95 1093.85C409.633 1084.96 423.366 923.245 423.366 923.245C415.107 892.345 413.405 791.527 413.405 791.527Z" fill="#2F3740"/>
<path d="M296.775 1118.48C296.775 1118.48 330.766 1107 339.057 1111.39C339.057 1111.39 338.823 1119.67 342.909 1123.94C346.995 1128.2 371.515 1153.78 367.193 1157.81C362.871 1161.83 320.707 1164.78 295.715 1155.78L296.775 1118.48Z" fill="#2D313D"/>
<path d="M401.735 1120.67C400.303 1120.53 399.037 1121.61 398.996 1123.04L398.104 1154.38C398.104 1154.38 394.192 1158.05 417.025 1158.69C439.855 1159.34 500.738 1161.07 504.65 1157.4C508.561 1153.74 504.864 1149.85 486.053 1141.76C467.239 1133.67 446.69 1119.86 439.292 1112.09C439.292 1112.09 424.073 1111.66 427.555 1123.09C427.555 1123.09 424.028 1122.99 401.735 1120.67Z" fill="#2D313D"/>
<path d="M605.691 456.519C607.537 446.142 586.45 442.567 586.45 442.567C586.45 442.567 590.761 432.629 594.488 424.905C598.212 417.179 593.112 419.785 593.112 419.785C578.785 432.512 565.266 453.634 567.299 463.712C569.331 473.788 561.917 483.38 561.917 483.38L580.819 492.327C580.819 492.327 591.833 476.626 593.982 473.12C596.129 469.617 603.845 466.896 605.691 456.519Z" fill="#FCC596"/>
<path d="M560.622 476.531L564.562 466.676C564.562 466.676 583.597 473.188 590.744 485.713L583.16 493.162L560.622 476.531Z" fill="#F8E8D8"/>
<path d="M464.62 466.308C479.033 488.494 508.184 533.986 508.184 533.986C508.184 533.986 515.471 522.306 516.554 532.474L558.141 470.896C558.141 470.896 583.113 474.636 588.739 495.044C588.739 495.044 541.059 593.685 518.475 600.204C495.887 606.724 463.329 545.729 463.329 545.729L458.059 468.522C457.807 464.837 462.611 463.209 464.62 466.308Z" fill="#4484E0"/>
<path d="M308.299 726.652C308.323 720.693 308.384 715.302 308.455 710.918H333.202H463.911C465.557 711.953 466.814 713.061 467.566 714.264C468.666 716.026 469.59 719.035 470.374 722.981C437.462 733.744 366.811 748.757 308.299 726.652Z" fill="#2F3740"/>
<path d="M462.589 655.859C461.363 651.359 460.372 648.531 460.372 648.531L320.646 654.265C320.646 654.265 320.157 657.119 319.394 661.994C320.082 662.955 320.646 663.676 320.646 663.676C382.998 689.127 428.155 689.154 462.589 655.859Z" fill="#330E00"/>
<path d="M450.35 458.052C465.176 464.294 485.996 476.79 467.708 519.966L461.342 652.851C461.342 652.851 468.444 673.328 463.965 677.673C429.514 711.083 384.324 711.083 321.9 685.603C321.9 685.603 318.615 681.414 318.191 679.732C315.903 670.703 323.527 645.496 323.527 645.496L288.64 537.037C288.64 537.037 254.251 490.234 277.02 473.26C312.838 446.55 391.687 433.356 450.35 458.052Z" fill="#4484E0"/>
<path d="M285.743 524.646C309.334 552.326 346.513 627.076 370.1 654.753C361.003 630.439 351.911 606.126 342.813 581.81C366.994 615.568 399.239 643.505 436.096 662.632C444.795 639.388 453.699 619.597 469.776 600.693L475.175 711.91C405.762 757.207 301.935 711.084 301.935 711.084L314.385 627.018L285.743 524.646Z" fill="#286BCE"/>
<path d="M409.62 441.95C409.62 441.95 423.386 441.357 425.887 442.9C428.388 444.443 434.653 462.523 435.911 465.377C437.168 468.231 419.178 485.057 419.178 485.057C419.178 485.057 434.026 509.43 433.406 511.393C432.782 513.356 406.458 619.903 406.458 619.903C406.458 619.903 342.628 524.698 341.328 519.967C340.026 515.237 347.436 490.744 347.436 490.744C347.436 490.744 328.535 476.814 327.387 473.775C326.237 470.738 323.824 451.32 327.387 448.855C329.579 447.338 342.285 444.48 342.285 444.48L409.62 441.95Z" fill="#68A9EA"/>
<path d="M342.286 449.08C342.286 449.08 361.852 499.568 379.08 544.023C392.635 578.998 407.601 542.414 407.601 542.414L411.824 442.17C410.887 442.105 408.93 441.854 407.997 441.801L342.286 449.08Z" fill="#F8E8D8"/>
<path d="M406.93 474.185C410.846 473.259 411.03 460.992 411.03 460.992L411.813 442.437C411.77 442.343 411.73 442.249 411.688 442.158C410.711 442.08 408.891 441.851 407.996 441.801L347.436 448.51C347.655 449.231 345.225 454.279 345.666 455.695C349.173 466.023 360.479 480.875 362.744 481.236C365.407 481.66 372.179 473.904 373.09 471.365C374.483 472.617 376.863 476.379 378.256 477.631C378.994 495.68 378.342 519.432 378.053 541.375C388.544 568.445 398.33 593.699 402.551 604.592C403.317 605.61 404.087 606.567 404.857 607.49L407.118 553.851C400.289 528.027 393.458 502.201 386.628 476.376C388.794 473.407 391.601 471.198 393.769 468.23C397.388 471.754 401.877 474.177 406.93 474.185Z" fill="url(#paint0_linear_1_146)"/>
<path d="M392.925 452.017C387.047 455.411 374.907 457.181 368.312 457.343C358.512 457.609 362.45 451.874 359.182 451.003L342.286 408.448L384.899 403.513L385.034 405.951L392.925 452.017Z" fill="#D38753"/>
<path d="M407.6 542.416L387.125 473.314L396.08 463.259L380.872 453.953L369.245 464.681L380.071 474.267C380.071 474.267 377.501 506.287 379.076 544.019C392.631 578.994 404.74 610.24 404.74 610.24L407.6 542.416Z" fill="#DE3D73"/>
<path d="M351.122 432.397C351.122 432.397 374.248 454.54 380.178 453.576C386.107 452.612 389.203 430.291 389.203 430.291C389.203 430.291 409.241 439.221 411.822 442.17C414.402 445.118 409.175 471.168 406.39 472.574C400.544 475.525 382.927 455.858 379.72 458.367C376.513 460.875 367.438 477.672 364.441 477.334C361.446 476.998 337.636 453.508 338.982 444.87C340.326 436.234 351.122 432.397 351.122 432.397Z" fill="#F8E8D8"/>
<path d="M402.566 598.435C402.566 598.435 391.766 555.488 396.391 553.839C401.016 552.19 412.254 604.001 412.254 604.001L402.566 598.435Z" fill="#3F3E3C"/>
<path d="M417.577 458.449L508.198 484.892L454.267 647.433L363.75 623.293L417.577 458.449Z" fill="#F8E8D8"/>
<path d="M402.092 585.697C394.241 578.924 381.069 585.359 353.692 586.666C350.959 586.797 347.922 587.02 344.68 587.314C344.591 595.265 344.252 603.3 344.84 611.185C351.828 607.777 357.936 606.285 362.094 608.333C377.992 616.167 391.42 616.013 391.42 616.013C391.42 616.013 392.506 624.87 397.883 626.261C403.26 627.654 410.733 620.306 414.153 618.847C417.575 617.388 409.942 592.472 402.092 585.697Z" fill="#F4BE84"/>
<path d="M349.704 583.558L367.043 582.646V614.261L349.704 618.74V583.558Z" fill="#F8E8D8"/>
<path d="M272.983 477.339C262.24 486.405 229.65 612.61 232.155 624.403C234.663 636.196 247.822 655.86 264.745 655.428C281.666 654.996 357.223 625.344 357.223 625.344L356.752 578.899L290.567 593.577L303.004 532.097L272.983 477.339Z" fill="#4484E0"/>
<path d="M342.115 393.08C342.115 393.08 324.694 391.392 325.173 375.453C325.639 359.974 345.372 363.448 349.362 379.555C349.444 379.884 349.893 379.895 349.959 379.564C350.888 374.974 354.023 360.93 358.367 357.356C358.367 357.356 351.54 334.315 367.667 327.351C383.795 320.389 422.212 319.848 422.976 344.966C423.74 370.084 420.861 377.797 420.262 389.463C419.667 401.127 401.406 435.592 393.708 438.044C386.011 440.496 348.312 417.127 342.489 411.234C336.664 405.34 342.115 393.08 342.115 393.08Z" fill="#F4BE84"/>
<path d="M449.691 314.873C449.691 314.873 442.785 316.335 438.598 313.798C438.598 313.798 447.182 292.961 441.462 284.236C441.462 284.236 428.816 299.351 391.149 292.149C353.481 284.947 319.285 296.908 309.778 329.024C300.271 361.14 324.014 405.05 340.471 407.864C338.341 401.613 342.115 393.079 342.115 393.079C342.115 393.079 324.694 391.391 325.175 375.452C325.639 359.973 345.372 363.447 349.363 379.554C349.445 379.883 349.894 379.894 349.963 379.563C350.889 374.973 354.025 360.929 358.368 357.355C358.368 357.355 351.541 334.314 367.668 327.35C383.796 320.388 422.213 319.847 422.977 344.965C423.055 347.535 423.084 349.882 423.096 352.111L423.099 352.107C423.097 352.108 451.993 342.448 449.691 314.873Z" fill="#221E52"/>
<path d="M1188.02 236.223L1192.39 239.611L1214.28 256.037L1237.14 239.876L1239.83 236.53L1256.79 249.695L1217.28 271.66L1178.52 243.416L1188.02 236.223Z" fill="#DA8642"/>
<path d="M1290.27 282.872L1137.14 281.966C1134.95 281.953 1133.18 280.167 1133.2 277.976L1133.68 196.41C1133.69 194.218 1135.48 192.454 1137.67 192.467L1290.8 193.375C1292.99 193.387 1294.75 195.173 1294.74 197.363L1294.26 278.931C1294.25 281.12 1292.46 282.886 1290.27 282.872Z" fill="#EF9B06"/>
<path d="M1134.01 194.852C1133.89 195.131 1133.87 195.452 1133.81 195.76C1133.77 195.984 1133.68 196.188 1133.68 196.424L1133.2 277.976C1133.19 279.135 1133.7 280.158 1134.49 280.887L1189.48 237.115L1134.01 194.852Z" fill="#FAC762"/>
<path d="M1239.83 237.654L1293.79 280.688C1294.06 280.161 1294.25 279.589 1294.25 278.958L1294.74 197.409C1294.74 196.819 1294.61 196.261 1294.39 195.753V195.75L1239.83 237.654Z" fill="#FAC762"/>
<path d="M1291.11 193.422L1137.52 192.487C1136.04 192.534 1134.78 193.395 1134.14 194.642L1213.12 255.257C1214.49 256.302 1216.37 256.296 1217.72 255.24L1294.32 195.623C1293.72 194.399 1292.53 193.543 1291.11 193.422Z" fill="#FFDB96"/>
<path d="M1311.21 195.787C1311.21 206.616 1302.43 215.394 1291.6 215.394C1280.78 215.394 1272 206.616 1272 195.787C1272 184.959 1280.78 176.181 1291.6 176.181C1302.43 176.181 1311.21 184.959 1311.21 195.787Z" fill="#F26B6B"/>
<path d="M1290.51 187.256H1290.43L1285.68 189.649L1284.85 185.941L1291.15 182.83H1295.25V208.746H1290.51V187.256Z" fill="white"/>
<path d="M1029.54 755.947L1129.69 759.484L924.8 758.97L833.9 756.98L1029.54 755.947Z" fill="#8394B4"/>
<path d="M1025.43 756.584H837.833C831.888 756.584 826.76 752.229 825.558 746.156L802.287 602.81C801.065 596.632 804.858 584.236 810.907 584.236L998.517 590.841C1004.03 590.841 1008.78 594.878 1009.89 600.505L1037.7 740.862C1039.31 748.976 1033.37 756.584 1025.43 756.584Z" fill="#8394B4"/>
<path opacity="0.2" d="M1023.39 752.945H840.597C834.806 752.945 829.809 748.691 828.637 742.759L806.179 602.726C804.985 596.691 806.934 584.236 812.828 584.236L997.166 591.035C1002.53 591.035 1007.16 594.978 1008.25 600.474L1035.35 737.589C1036.92 745.515 1031.13 752.945 1023.39 752.945Z" fill="#A5C0D7"/>
<path d="M1010.77 740.464H849.902C844.804 740.464 840.409 736.882 839.375 731.89L820.993 614.499C819.943 609.423 817.933 597.181 823.119 597.181L987.692 604.191C992.418 604.191 996.493 607.507 997.45 612.134L1021.3 727.538C1022.68 734.211 1017.58 740.464 1010.77 740.464Z" fill="#1D4C77"/>
<path d="M1126.98 773.121H923.547V758.971H1126.98C1131.01 758.971 1134.28 762.139 1134.28 766.047C1134.28 769.953 1131.01 773.121 1126.98 773.121Z" fill="#A5C0D7"/>
<path d="M1121.44 773.121C1103.17 771.992 1041.98 768.484 970.61 767.357C959.832 767.187 931 760.921 926.745 758.97H924.802V773.12L1121.44 773.121Z" fill="#8394B4"/>
<path d="M923.293 773.293L832.604 771.318C829.51 771.25 827.054 768.623 827.133 765.463L827.211 762.352C827.287 759.223 829.824 756.75 832.889 756.817L923.657 758.794C927.074 758.894 929.778 761.804 929.69 765.296L929.643 767.148C929.556 770.638 926.713 773.39 923.293 773.293Z" fill="#A5C0D7"/>
<path opacity="0.15" d="M910.58 773.015L832.603 771.318C829.509 771.25 827.053 768.623 827.132 765.463L827.21 762.352C827.286 759.223 829.823 756.75 832.888 756.817L838.288 756.934C848.671 768.146 910.58 773.015 910.58 773.015Z" fill="black"/>
<path d="M867.317 767.357H899.113V763.871H867.317V767.357Z" fill="#D2EDF3"/>
<path d="M921.127 763.871H907.164V767.357H921.127V763.871Z" fill="#D2EDF3"/>
<path d="M857.525 765.615C857.525 766.695 858.402 767.572 859.485 767.572C860.564 767.572 861.441 766.695 861.441 765.615C861.441 764.533 860.564 763.656 859.485 763.656C858.402 763.656 857.525 764.533 857.525 765.615Z" fill="#D2EDF3"/>
<path d="M838.555 737.457V730.848H684.514C676.596 730.848 670.179 740.321 670.179 752.006V752.137C670.179 763.823 676.596 773.295 684.514 773.295H838.555V766.688C833.762 751.773 838.555 737.457 838.555 737.457Z" fill="#E75669"/>
<path opacity="0.46" d="M718.21 730.847H729.344C724.752 734.822 721.612 742.792 721.612 751.997V752.143C721.612 761.348 724.753 769.321 729.344 773.293H718.21C710.295 773.293 703.877 763.82 703.877 752.135V752.004C703.877 740.32 710.295 730.847 718.21 730.847Z" fill="#C94F64"/>
<path d="M838.555 730.847H763.017C756.685 730.847 751.554 738.421 751.554 747.765V756.378C751.554 765.72 756.685 773.294 763.017 773.294H838.555V766.687C833.762 751.773 838.555 737.457 838.555 737.457V730.847Z" fill="#BC3D5C"/>
<path d="M763.822 737.457C759.465 737.457 755.93 742.672 755.93 749.107V755.037C755.93 761.471 759.464 766.687 763.822 766.687H838.555C834.362 752.07 838.555 737.457 838.555 737.457H763.822Z" fill="#EDF0EE"/>
<path opacity="0.83" d="M838.555 737.457H763.822C759.465 737.457 755.93 742.672 755.93 749.107V752.07H836.696C836.779 743.689 838.555 737.457 838.555 737.457Z" fill="#DDE0DD"/>
<path d="M673.872 703.394V698.331H835.105C843.392 698.331 850.109 705.587 850.109 714.54V714.64C850.109 723.589 843.392 730.847 835.105 730.847H673.872V725.784C678.887 714.359 673.872 703.394 673.872 703.394Z" fill="#F89E1B"/>
<path d="M673.872 698.332H752.937C759.564 698.332 764.932 704.133 764.932 711.291V717.889C764.932 725.045 759.564 730.848 752.937 730.848H673.872V725.785C678.887 714.359 673.872 703.394 673.872 703.394V698.332Z" fill="#CF7A28"/>
<path d="M752.096 703.394C756.657 703.394 760.354 707.388 760.354 712.318V716.861C760.354 721.789 756.657 725.785 752.096 725.785H673.872C678.26 714.59 673.872 703.394 673.872 703.394H752.096Z" fill="#EDF0EE"/>
<path opacity="0.83" d="M673.872 703.394H752.096C756.657 703.394 760.354 707.388 760.354 712.318V714.589H675.82C675.733 708.168 673.872 703.394 673.872 703.394Z" fill="#DDE0DD"/>
<path d="M749.557 711.291C749.557 711.291 748.763 712.363 748.663 714.832C748.563 717.299 747.473 720.197 747.473 720.197L744.889 717.406L742.107 720.197C742.107 720.197 743.002 716.761 743.002 714.939C743.002 713.115 744.392 711.291 744.392 711.291H749.557Z" fill="#A01D3B"/>
<path d="M681.503 675.351V671.076H817.633C824.629 671.076 830.299 677.203 830.299 684.762V684.846C830.299 692.403 824.629 698.53 817.633 698.53H681.503V694.257C685.737 684.609 681.503 675.351 681.503 675.351Z" fill="#0EA954"/>
<path d="M681.503 671.076H748.257C753.852 671.076 758.388 675.974 758.388 682.017V687.589C758.388 693.63 753.852 698.528 748.257 698.528H681.503V694.255C685.736 684.609 681.503 675.351 681.503 675.351V671.076Z" fill="#009748"/>
<path d="M747.545 675.351C751.397 675.351 754.52 678.724 754.52 682.884V686.72C754.52 690.882 751.397 694.255 747.545 694.255H681.503C685.208 684.802 681.503 675.351 681.503 675.351H747.545Z" fill="#EDF0EE"/>
<path opacity="0.83" d="M681.503 675.351H747.545C751.397 675.351 754.52 678.724 754.52 682.884V684.802H683.146C683.071 679.382 681.503 675.351 681.503 675.351Z" fill="#DDE0DD"/>
<path d="M745.404 682.017C745.404 682.017 744.734 682.923 744.649 685.007C744.567 687.091 743.643 689.536 743.643 689.536L741.463 687.182L739.114 689.536C739.114 689.536 739.87 686.638 739.87 685.097C739.87 683.558 741.042 682.017 741.042 682.017H745.404Z" fill="#253D95"/>
<path d="M1237.87 491.556C1237.87 491.556 1230.86 525.005 1232.98 544.798C1235.09 564.591 1266.37 576.265 1266.37 576.265L1268.22 593.583L1326.18 593.558C1326.18 593.558 1324.79 578.031 1325.27 573.974C1325.75 569.92 1273.31 490.101 1237.87 491.556Z" fill="#FFDCB4"/>
<path d="M1358.22 493.156C1357.89 486.828 1355.8 480.715 1352.38 475.381L1344.33 462.834C1344.33 462.834 1334.33 440.912 1311.94 437.556C1306.54 436.747 1301.02 437.595 1295.95 439.617L1250.35 457.803C1242.34 460.995 1233.63 462.256 1225.1 460.998C1222.54 460.622 1220 460.035 1217.76 459.146C1216.38 458.597 1215.06 460.085 1215.73 461.412C1219.9 469.633 1230.24 487.135 1247.99 500.135C1247.95 500.215 1239.72 514.092 1246.23 528.367C1246.23 528.367 1249.07 508.045 1258.96 506.988C1258.96 506.988 1259.83 561.949 1270.79 570.789C1281.74 579.627 1324.07 577.607 1328.48 572.131C1332.91 566.652 1326.37 552.338 1335.74 546.332C1343.86 541.123 1359.5 518.175 1358.22 493.156Z" fill="#1A1941"/>
<path d="M619.137 1160.88H598.222L656.785 794.396H677.702L619.137 1160.88Z" fill="#A7A7D3"/>
<path d="M613.715 1160.88H592.799L651.362 794.396H672.278L613.715 1160.88Z" fill="#D0D1E9"/>
<path d="M837.686 1160.88H858.602L800.036 794.396H779.121L837.686 1160.88Z" fill="#A7A7D3"/>
<path d="M830.838 1160.88H851.755L793.191 794.396H772.275L830.838 1160.88Z" fill="#D0D1E9"/>
<path d="M1255.59 1160.88H1276.5L1217.94 794.396H1197.02L1255.59 1160.88Z" fill="#A7A7D3"/>
<path d="M1261.01 1160.88H1281.93L1223.36 794.396H1202.45L1261.01 1160.88Z" fill="#D0D1E9"/>
<path d="M1037.04 1160.88H1016.12L1074.69 794.396H1095.6L1037.04 1160.88Z" fill="#A7A7D3"/>
<path d="M1043.89 1160.88H1022.97L1081.53 794.396H1102.45L1043.89 1160.88Z" fill="#D0D1E9"/>
<path d="M1264.38 797.087H618.198C611.503 797.087 606.076 791.265 606.076 784.083C606.076 776.903 611.503 771.083 618.198 771.083H1264.38C1271.08 771.083 1276.5 776.903 1276.5 784.083C1276.5 791.265 1271.08 797.087 1264.38 797.087Z" fill="#D0D1E9"/>
<path d="M1179.88 1103.74V1125.64L1211.04 1127.82L1211.79 1103.74H1179.88Z" fill="#F5D0AD"/>
<path d="M1214.88 1161.69H1107.18C1107.18 1161.69 1105.38 1144.96 1120.64 1145.96C1135.9 1146.97 1155.78 1138.69 1167.38 1130.41C1178.98 1122.13 1211.29 1125.81 1214.88 1130.41C1218.47 1135.01 1214.88 1161.69 1214.88 1161.69Z" fill="#202B38"/>
<path d="M1172.12 1123.05H1215.5C1215.5 1123.05 1233.56 958.431 1233.56 936.798C1233.56 915.167 1233.56 902.294 1233.56 902.294L1150.16 920.071C1150.16 920.071 1163.73 1105.58 1172.12 1123.05Z" fill="#131E23"/>
<path d="M1029.59 736.851C1029.59 736.851 977.36 733.921 966.986 736.851C956.613 739.783 934.673 754.335 936.27 759.066C937.867 763.797 949.433 759.066 949.433 759.066C949.433 759.066 950.231 764.525 960.204 758.339C960.204 758.339 962.998 762.704 970.575 757.976C970.575 757.976 1008.2 760.886 1022.7 757.247C1037.19 753.609 1029.59 736.851 1029.59 736.851Z" fill="#FFDCB4"/>
<path d="M1035.2 1103.74V1125.64L1066.36 1127.82L1067.11 1103.74H1035.2Z" fill="#F5D0AD"/>
<path d="M1219.69 840.642C1219.69 840.642 1059.43 837.898 1035.2 862.734C1010.97 887.572 1010.97 935.402 1012.76 960.24C1014.56 985.076 1029.24 1123.46 1029.24 1123.46H1072.35C1072.35 1123.46 1086.36 933.565 1095.34 925.285C1104.31 917.008 1238.39 940.029 1248.31 901.332C1258.23 862.632 1219.69 840.642 1219.69 840.642Z" fill="#1B2B30"/>
<path d="M1070.2 1161.69H962.498C962.498 1161.69 960.704 1144.96 975.962 1145.96C991.221 1146.97 1011.1 1138.69 1022.7 1130.41C1034.3 1122.13 1066.61 1125.81 1070.2 1130.41C1073.79 1135.01 1070.2 1161.69 1070.2 1161.69Z" fill="#202B38"/>
<path d="M1032.56 767.377C1032.56 767.377 1010.37 751.434 1032.56 730.584C1032.56 730.584 1123.77 733.904 1143.59 707.102C1163.42 680.299 1208.81 602.895 1270.43 591.856C1332.06 580.819 1348.83 589.788 1366.05 622.903C1383.27 656.018 1390.86 890.69 1373.66 896.823C1356.46 902.956 1248.05 916.634 1234.36 895.358C1234.36 895.358 1213.26 878.987 1214.82 845.463C1216.38 811.939 1215.99 713.414 1215.99 713.414C1215.99 713.414 1191.46 752.66 1160.3 761.244C1129.15 769.83 1115.91 766.558 1115.91 766.558L1032.56 767.377Z" fill="#4454E0"/>
<path d="M1262.3 1161.69H1248.31L1287.47 936.798H1301.45L1262.3 1161.69Z" fill="#A7A7D3"/>
<path d="M1258.67 1161.69H1244.69L1283.84 936.798H1297.82L1258.67 1161.69Z" fill="#D0D1E9"/>
<path d="M1137.57 1161.69H1123.59L1162.74 936.798H1176.72L1137.57 1161.69Z" fill="#A7A7D3"/>
<path d="M1133.95 1161.69H1119.96L1159.12 936.798H1173.1L1133.95 1161.69Z" fill="#D0D1E9"/>
<path d="M1266.93 1161.69H1280.92L1241.76 936.798H1227.78L1266.93 1161.69Z" fill="#A7A7D3"/>
<path d="M1262.35 1161.69H1276.34L1237.19 936.798H1223.2L1262.35 1161.69Z" fill="#D0D1E9"/>
<path d="M1391.66 1161.69H1405.64L1366.49 936.798H1352.5L1391.66 1161.69Z" fill="#A7A7D3"/>
<path d="M1387.08 1161.69H1401.06L1361.91 936.798H1347.92L1387.08 1161.69Z" fill="#D0D1E9"/>
<path d="M1457.04 739.474C1457.31 688.675 1461.53 674.165 1385.24 677.845C1308.95 681.523 1294.59 739.474 1273.04 819.501C1251.5 899.528 1221.89 911.487 1221.89 911.487H1124.07C1116.63 911.487 1110.59 917.669 1110.59 925.296V928.95C1110.59 936.577 1116.63 942.761 1124.07 942.761H1221.89H1371.76C1371.96 942.761 1372.2 942.749 1372.45 942.726C1373.67 942.663 1374.84 942.445 1375.95 942.072C1386.92 939.383 1412.7 928.806 1431.91 911.488C1454.35 891.25 1456.72 798.746 1457.04 739.474Z" fill="#3D4359"/>
<path d="M1112.98 933.882C1112.98 926.255 1119.11 920.071 1126.66 920.071H1225.9C1225.9 920.071 1255.95 908.114 1277.81 828.087C1299.66 748.06 1314.23 690.108 1391.63 686.429C1425.2 684.833 1443.4 686.663 1453.24 693.386C1446.69 679.708 1429.54 675.708 1385.24 677.845C1308.95 681.523 1294.59 739.474 1273.04 819.501C1251.5 899.528 1221.89 911.487 1221.89 911.487H1124.07C1116.63 911.487 1110.59 917.669 1110.59 925.296V928.95C1110.59 931.868 1111.48 934.569 1112.99 936.798L1112.98 933.882Z" fill="#323749"/>
<path d="M1216.64 864.996C1216.98 866.398 1217.35 867.756 1217.75 869.059L1229.09 698.993L1215.99 713.415L1216.64 864.996Z" fill="#293FFF"/>
</g>
<defs>
<linearGradient id="paint0_linear_1_146" x1="386.875" y1="471.301" x2="437.38" y2="609.253" gradientUnits="userSpaceOnUse">
<stop stop-color="#CFD4D8"/>
<stop offset="1" stop-color="#CFD4D8"/>
</linearGradient>
<clipPath id="clip0_1_146">
<rect width="1589" height="1196" fill="white"/>
</clipPath>
</defs>
</svg>
