<?xml version="1.0" encoding="utf-8"?>
<!-- Generator: Adobe Illustrator 27.5.0, SVG Export Plug-In . SVG Version: 6.00 Build 0)  -->
<svg version="1.1" id="Design" xmlns="http://www.w3.org/2000/svg" xmlns:xlink="http://www.w3.org/1999/xlink" x="0px" y="0px"
	 viewBox="0 0 5000 4000" style="enable-background:new 0 0 5000 4000;" xml:space="preserve">
<g id="Background">
	<g>
		<g>
			<rect style="fill:#FFFFFF;" width="5000" height="4000"/>
		</g>
	</g>
	<g style="opacity:0.2;">
		<g>
			
				<path style="fill:none;stroke:#0F31AC;stroke-width:20;stroke-linecap:round;stroke-miterlimit:10;stroke-dasharray:50,50,50,50,50,50;" d="
				M1284.181,1141.937c-55.304-26.007-146.764,16.278-175.926,78.156c-55.668,118.122,124.378,289.192,189.854,270.831
				C1371.276,1470.406,1385.72,1189.685,1284.181,1141.937z"/>
			
				<path style="fill:none;stroke:#0F31AC;stroke-width:20;stroke-linecap:round;stroke-miterlimit:10;stroke-dasharray:50,50,50,50,50,50;" d="
				M1007.565,1409.484c-19.737-11.417-228.805-132.355-347.122-36.642c-83.076,67.205-83.871,210.855-21.441,291.591
				c123.648,159.904,507.069,88.214,546.852-26.205C1212.644,1561.176,1086.865,1455.356,1007.565,1409.484z"/>
			
				<path style="fill:none;stroke:#0F31AC;stroke-width:20;stroke-linecap:round;stroke-miterlimit:10;stroke-dasharray:50,50,50,50,50,50;" d="
				M1276.577,3384c508.89-126.31,1087.12-254.9,1985-233c502.15,12.25,615.94-143.58,996.51-337.33
				c339.21-172.68,505.81-516.06,403.49-710.67c-103.3-196.47-417.94-118.25-675.62-410.71c-117.35-133.2-96.7-226.56-164.45-374.27
				c-214.55-467.71-1018.68-833.28-1415.21-639.81c-523.87,255.59-76.01,1359.96-661.6,1661.64
				c-370.41,190.84-650.38-175.51-1016.12,104.15c-181.22,138.57-402.859,332.948-420,544C308.577,2988,284.577,3504,1276.577,3384z
				"/>
		</g>
		<path style="fill:#ACBCF8;" d="M4088.14,2809.3c0,0-92.18,122.22-184.38,289.91c-83.12,151.22-146.33,354.98-160.29,525.1
			c-39.15-1.85-82.15-3.59-128.64-5.24c-275.34-9.77-672.84-15.89-1114.83-15.89c-502.48,0-947.45,7.92-1220.8,20.1
			c-9.41,0.42-18.62,0.84-27.62,1.27C910.31,3201.56,223.1,2464.63,855.52,2161.47c0,0,46.33-14.11,115.79-44.42
			c219.84-95.95,671.6-354.14,621.35-840.95c0,0-17.12-90.84-17.12-217.24c0-295.56,93.57-785.48,718.25-763.12
			c378.29,13.56,726.68,206.06,937.31,514.18c206.6,302.21,536.94,674.04,805.96,461.76c62.1-49.02,144.21-67.18,220.87-45.63
			C4451.57,1280.44,4671.55,1562.01,4088.14,2809.3z"/>
	</g>
	<path style="opacity:0.15;fill:#040C2B;" d="M4590.475,3640.772c0,20.002-935.938,36.219-2090.475,36.219
		c-651.433,0-1233.267-5.161-1616.659-13.256c-88.307-1.865-166.074-3.885-231.739-6.031c-43.253-1.412-81.255-2.888-113.561-4.409
		c-83.119-3.894-128.516-8.113-128.516-12.523c0-5.614,73.682-10.929,205.191-15.665c53.857-1.947,117.405-3.794,189.565-5.514
		c379.688-9.109,997.761-15.04,1695.719-15.04c613.938,0,1166.067,4.582,1548.519,11.889
		C4385.271,3622.871,4590.475,3631.409,4590.475,3640.772z"/>
</g>
<g>
	<g>
		<rect x="1358.258" y="1712.92" style="fill:#E3E9F7;" width="2306.68" height="1513.35"/>
		<rect x="1358.258" y="1936" style="fill:#F9FBFD;" width="2306.68" height="1290.27"/>
		<rect x="1355.514" y="1562.35" style="fill:#ACBCF8;" width="2312.174" height="150.999"/>
		<g>
			<g>
				<g>
					<ellipse style="fill:#E3E9F7;" cx="1438.422" cy="1637.849" rx="25.409" ry="24.16"/>
				</g>
			</g>
			<g>
				<g>
					<ellipse style="fill:#E3E9F7;" cx="1512.531" cy="1637.849" rx="25.409" ry="24.16"/>
				</g>
			</g>
			<g>
				<g>
					<ellipse style="fill:#E3E9F7;" cx="1586.639" cy="1637.849" rx="25.409" ry="24.16"/>
				</g>
			</g>
		</g>
		<g>
			
				<rect x="1394.373" y="1994.298" style="fill:#CDD7FB;stroke:#0F31AC;stroke-width:2;stroke-miterlimit:10;" width="223.445" height="73.355"/>
			
				<rect x="1617.818" y="1994.298" style="fill:#CDD7FB;stroke:#0F31AC;stroke-width:2;stroke-miterlimit:10;" width="223.445" height="73.355"/>
			
				<rect x="1841.263" y="1994.298" style="fill:#CDD7FB;stroke:#0F31AC;stroke-width:2;stroke-miterlimit:10;" width="223.445" height="73.355"/>
			
				<rect x="2064.708" y="1994.298" style="fill:#CDD7FB;stroke:#0F31AC;stroke-width:2;stroke-miterlimit:10;" width="223.445" height="73.355"/>
			
				<rect x="2288.153" y="1994.298" style="fill:#CDD7FB;stroke:#0F31AC;stroke-width:2;stroke-miterlimit:10;" width="223.445" height="73.355"/>
			
				<rect x="2511.598" y="1994.298" style="fill:#CDD7FB;stroke:#0F31AC;stroke-width:2;stroke-miterlimit:10;" width="223.445" height="73.355"/>
			
				<rect x="2735.043" y="1994.298" style="fill:#CDD7FB;stroke:#0F31AC;stroke-width:2;stroke-miterlimit:10;" width="223.445" height="73.355"/>
			
				<rect x="2958.488" y="1994.298" style="fill:#CDD7FB;stroke:#0F31AC;stroke-width:2;stroke-miterlimit:10;" width="223.445" height="73.355"/>
			
				<rect x="3181.933" y="1994.298" style="fill:#CDD7FB;stroke:#0F31AC;stroke-width:2;stroke-miterlimit:10;" width="223.445" height="73.355"/>
			
				<rect x="3405.378" y="1994.298" style="fill:#CDD7FB;stroke:#0F31AC;stroke-width:2;stroke-miterlimit:10;" width="223.445" height="73.355"/>
			
				<rect x="1394.373" y="2067.653" style="fill:#CDD7FB;stroke:#0F31AC;stroke-width:2;stroke-miterlimit:10;" width="223.445" height="73.355"/>
			
				<rect x="1617.818" y="2067.653" style="fill:#FFFFFF;stroke:#0F31AC;stroke-width:2;stroke-miterlimit:10;" width="223.445" height="73.355"/>
			
				<rect x="1841.263" y="2067.653" style="fill:#FFFFFF;stroke:#0F31AC;stroke-width:2;stroke-miterlimit:10;" width="223.445" height="73.355"/>
			
				<rect x="2064.708" y="2067.653" style="fill:#FFFFFF;stroke:#0F31AC;stroke-width:2;stroke-miterlimit:10;" width="223.445" height="73.355"/>
			
				<rect x="2288.153" y="2067.653" style="fill:#FFFFFF;stroke:#0F31AC;stroke-width:2;stroke-miterlimit:10;" width="223.445" height="73.355"/>
			
				<rect x="2511.598" y="2067.653" style="fill:#FFFFFF;stroke:#0F31AC;stroke-width:2;stroke-miterlimit:10;" width="223.445" height="73.355"/>
			
				<rect x="2735.043" y="2067.653" style="fill:#FFFFFF;stroke:#0F31AC;stroke-width:2;stroke-miterlimit:10;" width="223.445" height="73.355"/>
			
				<rect x="2958.488" y="2067.653" style="fill:#FFFFFF;stroke:#0F31AC;stroke-width:2;stroke-miterlimit:10;" width="223.445" height="73.355"/>
			
				<rect x="3181.933" y="2067.653" style="fill:#FFFFFF;stroke:#0F31AC;stroke-width:2;stroke-miterlimit:10;" width="223.445" height="73.355"/>
			
				<rect x="3405.378" y="2067.653" style="fill:#FFFFFF;stroke:#0F31AC;stroke-width:2;stroke-miterlimit:10;" width="223.445" height="73.355"/>
			
				<rect x="1394.373" y="2141.007" style="fill:#CDD7FB;stroke:#0F31AC;stroke-width:2;stroke-miterlimit:10;" width="223.445" height="73.355"/>
			
				<rect x="1617.818" y="2141.007" style="fill:#FFFFFF;stroke:#0F31AC;stroke-width:2;stroke-miterlimit:10;" width="223.445" height="73.355"/>
			
				<rect x="1841.263" y="2141.007" style="fill:#FFFFFF;stroke:#0F31AC;stroke-width:2;stroke-miterlimit:10;" width="223.445" height="73.355"/>
			
				<rect x="2064.708" y="2141.007" style="fill:#FFFFFF;stroke:#0F31AC;stroke-width:2;stroke-miterlimit:10;" width="223.445" height="73.355"/>
			
				<rect x="2288.153" y="2141.007" style="fill:#FFFFFF;stroke:#0F31AC;stroke-width:2;stroke-miterlimit:10;" width="223.445" height="73.355"/>
			
				<rect x="2511.598" y="2141.007" style="fill:#FFFFFF;stroke:#0F31AC;stroke-width:2;stroke-miterlimit:10;" width="223.445" height="73.355"/>
			
				<rect x="2735.043" y="2141.007" style="fill:#FFFFFF;stroke:#0F31AC;stroke-width:2;stroke-miterlimit:10;" width="223.445" height="73.355"/>
			
				<rect x="2958.488" y="2141.007" style="fill:#FFFFFF;stroke:#0F31AC;stroke-width:2;stroke-miterlimit:10;" width="223.445" height="73.355"/>
			
				<rect x="3181.933" y="2141.007" style="fill:#FFFFFF;stroke:#0F31AC;stroke-width:2;stroke-miterlimit:10;" width="223.445" height="73.355"/>
			
				<rect x="3405.378" y="2141.007" style="fill:#FFFFFF;stroke:#0F31AC;stroke-width:2;stroke-miterlimit:10;" width="223.445" height="73.355"/>
			
				<rect x="1394.373" y="2214.362" style="fill:#CDD7FB;stroke:#0F31AC;stroke-width:2;stroke-miterlimit:10;" width="223.445" height="73.355"/>
			
				<rect x="1617.818" y="2214.362" style="fill:#FFFFFF;stroke:#0F31AC;stroke-width:2;stroke-miterlimit:10;" width="223.445" height="73.355"/>
			
				<rect x="1841.263" y="2214.362" style="fill:#FFFFFF;stroke:#0F31AC;stroke-width:2;stroke-miterlimit:10;" width="223.445" height="73.355"/>
			
				<rect x="2064.708" y="2214.362" style="fill:#FFFFFF;stroke:#0F31AC;stroke-width:2;stroke-miterlimit:10;" width="223.445" height="73.355"/>
			
				<rect x="2288.153" y="2214.362" style="fill:#FFFFFF;stroke:#0F31AC;stroke-width:2;stroke-miterlimit:10;" width="223.445" height="73.355"/>
			
				<rect x="2511.598" y="2214.362" style="fill:#FFFFFF;stroke:#0F31AC;stroke-width:2;stroke-miterlimit:10;" width="223.445" height="73.355"/>
			
				<rect x="2735.043" y="2214.362" style="fill:#FFFFFF;stroke:#0F31AC;stroke-width:2;stroke-miterlimit:10;" width="223.445" height="73.355"/>
			
				<rect x="2958.488" y="2214.362" style="fill:#FFFFFF;stroke:#0F31AC;stroke-width:2;stroke-miterlimit:10;" width="223.445" height="73.355"/>
			
				<rect x="3181.933" y="2214.362" style="fill:#FFFFFF;stroke:#0F31AC;stroke-width:2;stroke-miterlimit:10;" width="223.445" height="73.355"/>
			
				<rect x="3405.378" y="2214.362" style="fill:#FFFFFF;stroke:#0F31AC;stroke-width:2;stroke-miterlimit:10;" width="223.445" height="73.355"/>
			
				<rect x="1394.373" y="2287.717" style="fill:#CDD7FB;stroke:#0F31AC;stroke-width:2;stroke-miterlimit:10;" width="223.445" height="73.355"/>
			
				<rect x="1617.818" y="2287.717" style="fill:#FFFFFF;stroke:#0F31AC;stroke-width:2;stroke-miterlimit:10;" width="223.445" height="73.355"/>
			
				<rect x="1841.263" y="2287.717" style="fill:#FFFFFF;stroke:#0F31AC;stroke-width:2;stroke-miterlimit:10;" width="223.445" height="73.355"/>
			
				<rect x="2064.708" y="2287.717" style="fill:#FFFFFF;stroke:#0F31AC;stroke-width:2;stroke-miterlimit:10;" width="223.445" height="73.355"/>
			
				<rect x="2288.153" y="2287.717" style="fill:#FFFFFF;stroke:#0F31AC;stroke-width:2;stroke-miterlimit:10;" width="223.445" height="73.355"/>
			
				<rect x="2511.598" y="2287.717" style="fill:#FFFFFF;stroke:#0F31AC;stroke-width:2;stroke-miterlimit:10;" width="223.445" height="73.355"/>
			
				<rect x="2735.043" y="2287.717" style="fill:#FFFFFF;stroke:#0F31AC;stroke-width:2;stroke-miterlimit:10;" width="223.445" height="73.355"/>
			
				<rect x="2958.488" y="2287.717" style="fill:#FFFFFF;stroke:#0F31AC;stroke-width:2;stroke-miterlimit:10;" width="223.445" height="73.355"/>
			
				<rect x="3181.933" y="2287.717" style="fill:#FFFFFF;stroke:#0F31AC;stroke-width:2;stroke-miterlimit:10;" width="223.445" height="73.355"/>
			
				<rect x="3405.378" y="2287.717" style="fill:#FFFFFF;stroke:#0F31AC;stroke-width:2;stroke-miterlimit:10;" width="223.445" height="73.355"/>
			
				<rect x="1394.373" y="2361.071" style="fill:#CDD7FB;stroke:#0F31AC;stroke-width:2;stroke-miterlimit:10;" width="223.445" height="73.355"/>
			
				<rect x="1617.818" y="2361.071" style="fill:#FFFFFF;stroke:#0F31AC;stroke-width:2;stroke-miterlimit:10;" width="223.445" height="73.355"/>
			
				<rect x="1841.263" y="2361.071" style="fill:#FFFFFF;stroke:#0F31AC;stroke-width:2;stroke-miterlimit:10;" width="223.445" height="73.355"/>
			
				<rect x="2064.708" y="2361.071" style="fill:#FFFFFF;stroke:#0F31AC;stroke-width:2;stroke-miterlimit:10;" width="223.445" height="73.355"/>
			
				<rect x="2288.153" y="2361.071" style="fill:#FFFFFF;stroke:#0F31AC;stroke-width:2;stroke-miterlimit:10;" width="223.445" height="73.355"/>
			
				<rect x="2511.598" y="2361.071" style="fill:#FFFFFF;stroke:#0F31AC;stroke-width:2;stroke-miterlimit:10;" width="223.445" height="73.355"/>
			
				<rect x="2735.043" y="2361.071" style="fill:#FFFFFF;stroke:#0F31AC;stroke-width:2;stroke-miterlimit:10;" width="223.445" height="73.355"/>
			
				<rect x="2958.488" y="2361.071" style="fill:#FFFFFF;stroke:#0F31AC;stroke-width:2;stroke-miterlimit:10;" width="223.445" height="73.355"/>
			
				<rect x="3181.933" y="2361.071" style="fill:#FFFFFF;stroke:#0F31AC;stroke-width:2;stroke-miterlimit:10;" width="223.445" height="73.355"/>
			
				<rect x="3405.378" y="2361.071" style="fill:#FFFFFF;stroke:#0F31AC;stroke-width:2;stroke-miterlimit:10;" width="223.445" height="73.355"/>
			
				<rect x="1394.373" y="2434.426" style="fill:#CDD7FB;stroke:#0F31AC;stroke-width:2;stroke-miterlimit:10;" width="223.445" height="73.355"/>
			
				<rect x="1617.818" y="2434.426" style="fill:#FFFFFF;stroke:#0F31AC;stroke-width:2;stroke-miterlimit:10;" width="223.445" height="73.355"/>
			
				<rect x="1841.263" y="2434.426" style="fill:#FFFFFF;stroke:#0F31AC;stroke-width:2;stroke-miterlimit:10;" width="223.445" height="73.355"/>
			
				<rect x="2064.708" y="2434.426" style="fill:#FFFFFF;stroke:#0F31AC;stroke-width:2;stroke-miterlimit:10;" width="223.445" height="73.355"/>
			
				<rect x="2288.153" y="2434.426" style="fill:#FFFFFF;stroke:#0F31AC;stroke-width:2;stroke-miterlimit:10;" width="223.445" height="73.355"/>
			
				<rect x="2511.598" y="2434.426" style="fill:#FFFFFF;stroke:#0F31AC;stroke-width:2;stroke-miterlimit:10;" width="223.445" height="73.355"/>
			
				<rect x="2735.043" y="2434.426" style="fill:#FFFFFF;stroke:#0F31AC;stroke-width:2;stroke-miterlimit:10;" width="223.445" height="73.355"/>
			
				<rect x="2958.488" y="2434.426" style="fill:#FFFFFF;stroke:#0F31AC;stroke-width:2;stroke-miterlimit:10;" width="223.445" height="73.355"/>
			
				<rect x="3181.933" y="2434.426" style="fill:#FFFFFF;stroke:#0F31AC;stroke-width:2;stroke-miterlimit:10;" width="223.445" height="73.355"/>
			
				<rect x="3405.378" y="2434.426" style="fill:#FFFFFF;stroke:#0F31AC;stroke-width:2;stroke-miterlimit:10;" width="223.445" height="73.355"/>
			
				<rect x="1394.373" y="2507.781" style="fill:#CDD7FB;stroke:#0F31AC;stroke-width:2;stroke-miterlimit:10;" width="223.445" height="73.355"/>
			
				<rect x="1617.818" y="2507.781" style="fill:#FFFFFF;stroke:#0F31AC;stroke-width:2;stroke-miterlimit:10;" width="223.445" height="73.355"/>
			
				<rect x="1841.263" y="2507.781" style="fill:#FFFFFF;stroke:#0F31AC;stroke-width:2;stroke-miterlimit:10;" width="223.445" height="73.355"/>
			
				<rect x="2064.708" y="2507.781" style="fill:#FFFFFF;stroke:#0F31AC;stroke-width:2;stroke-miterlimit:10;" width="223.445" height="73.355"/>
			
				<rect x="2288.153" y="2507.781" style="fill:#FFFFFF;stroke:#0F31AC;stroke-width:2;stroke-miterlimit:10;" width="223.445" height="73.355"/>
			
				<rect x="2511.598" y="2507.781" style="fill:#FFFFFF;stroke:#0F31AC;stroke-width:2;stroke-miterlimit:10;" width="223.445" height="73.355"/>
			
				<rect x="2735.043" y="2507.781" style="fill:#FFFFFF;stroke:#0F31AC;stroke-width:2;stroke-miterlimit:10;" width="223.445" height="73.355"/>
			
				<rect x="2958.488" y="2507.781" style="fill:#FFFFFF;stroke:#0F31AC;stroke-width:2;stroke-miterlimit:10;" width="223.445" height="73.355"/>
			
				<rect x="3181.933" y="2507.781" style="fill:#FFFFFF;stroke:#0F31AC;stroke-width:2;stroke-miterlimit:10;" width="223.445" height="73.355"/>
			
				<rect x="3405.378" y="2507.781" style="fill:#FFFFFF;stroke:#0F31AC;stroke-width:2;stroke-miterlimit:10;" width="223.445" height="73.355"/>
			
				<rect x="1394.373" y="2581.135" style="fill:#CDD7FB;stroke:#0F31AC;stroke-width:2;stroke-miterlimit:10;" width="223.445" height="73.355"/>
			
				<rect x="1617.818" y="2581.135" style="fill:#FFFFFF;stroke:#0F31AC;stroke-width:2;stroke-miterlimit:10;" width="223.445" height="73.355"/>
			
				<rect x="1841.263" y="2581.135" style="fill:#FFFFFF;stroke:#0F31AC;stroke-width:2;stroke-miterlimit:10;" width="223.445" height="73.355"/>
			
				<rect x="2064.708" y="2581.135" style="fill:#FFFFFF;stroke:#0F31AC;stroke-width:2;stroke-miterlimit:10;" width="223.445" height="73.355"/>
			
				<rect x="2288.153" y="2581.135" style="fill:#FFFFFF;stroke:#0F31AC;stroke-width:2;stroke-miterlimit:10;" width="223.445" height="73.355"/>
			
				<rect x="2511.598" y="2581.135" style="fill:#FFFFFF;stroke:#0F31AC;stroke-width:2;stroke-miterlimit:10;" width="223.445" height="73.355"/>
			
				<rect x="2735.043" y="2581.135" style="fill:#FFFFFF;stroke:#0F31AC;stroke-width:2;stroke-miterlimit:10;" width="223.445" height="73.355"/>
			
				<rect x="2958.488" y="2581.135" style="fill:#FFFFFF;stroke:#0F31AC;stroke-width:2;stroke-miterlimit:10;" width="223.445" height="73.355"/>
			
				<rect x="3181.933" y="2581.135" style="fill:#FFFFFF;stroke:#0F31AC;stroke-width:2;stroke-miterlimit:10;" width="223.445" height="73.355"/>
			
				<rect x="3405.378" y="2581.135" style="fill:#FFFFFF;stroke:#0F31AC;stroke-width:2;stroke-miterlimit:10;" width="223.445" height="73.355"/>
			
				<rect x="1394.373" y="2654.49" style="fill:#CDD7FB;stroke:#0F31AC;stroke-width:2;stroke-miterlimit:10;" width="223.445" height="73.355"/>
			
				<rect x="1617.818" y="2654.49" style="fill:#FFFFFF;stroke:#0F31AC;stroke-width:2;stroke-miterlimit:10;" width="223.445" height="73.355"/>
			
				<rect x="1841.263" y="2654.49" style="fill:#FFFFFF;stroke:#0F31AC;stroke-width:2;stroke-miterlimit:10;" width="223.445" height="73.355"/>
			
				<rect x="2064.708" y="2654.49" style="fill:#FFFFFF;stroke:#0F31AC;stroke-width:2;stroke-miterlimit:10;" width="223.445" height="73.355"/>
			
				<rect x="2288.153" y="2654.49" style="fill:#FFFFFF;stroke:#0F31AC;stroke-width:2;stroke-miterlimit:10;" width="223.445" height="73.355"/>
			
				<rect x="2511.598" y="2654.49" style="fill:#FFFFFF;stroke:#0F31AC;stroke-width:2;stroke-miterlimit:10;" width="223.445" height="73.355"/>
			
				<rect x="2735.043" y="2654.49" style="fill:#FFFFFF;stroke:#0F31AC;stroke-width:2;stroke-miterlimit:10;" width="223.445" height="73.355"/>
			
				<rect x="2958.488" y="2654.49" style="fill:#FFFFFF;stroke:#0F31AC;stroke-width:2;stroke-miterlimit:10;" width="223.445" height="73.355"/>
			
				<rect x="3181.933" y="2654.49" style="fill:#FFFFFF;stroke:#0F31AC;stroke-width:2;stroke-miterlimit:10;" width="223.445" height="73.355"/>
			
				<rect x="3405.378" y="2654.49" style="fill:#FFFFFF;stroke:#0F31AC;stroke-width:2;stroke-miterlimit:10;" width="223.445" height="73.355"/>
			
				<rect x="1394.373" y="2727.844" style="fill:#CDD7FB;stroke:#0F31AC;stroke-width:2;stroke-miterlimit:10;" width="223.445" height="73.355"/>
			
				<rect x="1617.818" y="2727.844" style="fill:#FFFFFF;stroke:#0F31AC;stroke-width:2;stroke-miterlimit:10;" width="223.445" height="73.355"/>
			
				<rect x="1841.263" y="2727.844" style="fill:#FFFFFF;stroke:#0F31AC;stroke-width:2;stroke-miterlimit:10;" width="223.445" height="73.355"/>
			
				<rect x="2064.708" y="2727.844" style="fill:#FFFFFF;stroke:#0F31AC;stroke-width:2;stroke-miterlimit:10;" width="223.445" height="73.355"/>
			
				<rect x="2288.153" y="2727.844" style="fill:#FFFFFF;stroke:#0F31AC;stroke-width:2;stroke-miterlimit:10;" width="223.445" height="73.355"/>
			
				<rect x="2511.598" y="2727.844" style="fill:#FFFFFF;stroke:#0F31AC;stroke-width:2;stroke-miterlimit:10;" width="223.445" height="73.355"/>
			
				<rect x="2735.043" y="2727.844" style="fill:#FFFFFF;stroke:#0F31AC;stroke-width:2;stroke-miterlimit:10;" width="223.445" height="73.355"/>
			
				<rect x="2958.488" y="2727.844" style="fill:#FFFFFF;stroke:#0F31AC;stroke-width:2;stroke-miterlimit:10;" width="223.445" height="73.355"/>
			
				<rect x="3181.933" y="2727.844" style="fill:#FFFFFF;stroke:#0F31AC;stroke-width:2;stroke-miterlimit:10;" width="223.445" height="73.355"/>
			
				<rect x="3405.378" y="2727.844" style="fill:#FFFFFF;stroke:#0F31AC;stroke-width:2;stroke-miterlimit:10;" width="223.445" height="73.355"/>
			
				<rect x="1394.373" y="2801.199" style="fill:#CDD7FB;stroke:#0F31AC;stroke-width:2;stroke-miterlimit:10;" width="223.445" height="73.355"/>
			
				<rect x="1617.818" y="2801.199" style="fill:#FFFFFF;stroke:#0F31AC;stroke-width:2;stroke-miterlimit:10;" width="223.445" height="73.355"/>
			
				<rect x="1841.263" y="2801.199" style="fill:#FFFFFF;stroke:#0F31AC;stroke-width:2;stroke-miterlimit:10;" width="223.445" height="73.355"/>
			
				<rect x="2064.708" y="2801.199" style="fill:#FFFFFF;stroke:#0F31AC;stroke-width:2;stroke-miterlimit:10;" width="223.445" height="73.355"/>
			
				<rect x="2288.153" y="2801.199" style="fill:#FFFFFF;stroke:#0F31AC;stroke-width:2;stroke-miterlimit:10;" width="223.445" height="73.355"/>
			
				<rect x="2511.598" y="2801.199" style="fill:#FFFFFF;stroke:#0F31AC;stroke-width:2;stroke-miterlimit:10;" width="223.445" height="73.355"/>
			
				<rect x="2735.043" y="2801.199" style="fill:#FFFFFF;stroke:#0F31AC;stroke-width:2;stroke-miterlimit:10;" width="223.445" height="73.355"/>
			
				<rect x="2958.488" y="2801.199" style="fill:#FFFFFF;stroke:#0F31AC;stroke-width:2;stroke-miterlimit:10;" width="223.445" height="73.355"/>
			
				<rect x="3181.933" y="2801.199" style="fill:#FFFFFF;stroke:#0F31AC;stroke-width:2;stroke-miterlimit:10;" width="223.445" height="73.355"/>
			
				<rect x="3405.378" y="2801.199" style="fill:#FFFFFF;stroke:#0F31AC;stroke-width:2;stroke-miterlimit:10;" width="223.445" height="73.355"/>
			
				<rect x="1394.373" y="2874.553" style="fill:#CDD7FB;stroke:#0F31AC;stroke-width:2;stroke-miterlimit:10;" width="223.445" height="73.355"/>
			
				<rect x="1617.818" y="2874.553" style="fill:#FFFFFF;stroke:#0F31AC;stroke-width:2;stroke-miterlimit:10;" width="223.445" height="73.355"/>
			
				<rect x="1841.263" y="2874.553" style="fill:#FFFFFF;stroke:#0F31AC;stroke-width:2;stroke-miterlimit:10;" width="223.445" height="73.355"/>
			
				<rect x="2064.708" y="2874.553" style="fill:#FFFFFF;stroke:#0F31AC;stroke-width:2;stroke-miterlimit:10;" width="223.445" height="73.355"/>
			
				<rect x="2288.153" y="2874.553" style="fill:#FFFFFF;stroke:#0F31AC;stroke-width:2;stroke-miterlimit:10;" width="223.445" height="73.355"/>
			
				<rect x="2511.598" y="2874.553" style="fill:#FFFFFF;stroke:#0F31AC;stroke-width:2;stroke-miterlimit:10;" width="223.445" height="73.355"/>
			
				<rect x="2735.043" y="2874.553" style="fill:#FFFFFF;stroke:#0F31AC;stroke-width:2;stroke-miterlimit:10;" width="223.445" height="73.355"/>
			
				<rect x="2958.488" y="2874.553" style="fill:#FFFFFF;stroke:#0F31AC;stroke-width:2;stroke-miterlimit:10;" width="223.445" height="73.355"/>
			
				<rect x="3181.933" y="2874.553" style="fill:#FFFFFF;stroke:#0F31AC;stroke-width:2;stroke-miterlimit:10;" width="223.445" height="73.355"/>
			
				<rect x="3405.378" y="2874.553" style="fill:#FFFFFF;stroke:#0F31AC;stroke-width:2;stroke-miterlimit:10;" width="223.445" height="73.355"/>
			
				<rect x="1394.373" y="2947.908" style="fill:#CDD7FB;stroke:#0F31AC;stroke-width:2;stroke-miterlimit:10;" width="223.445" height="73.355"/>
			
				<rect x="1617.818" y="2947.908" style="fill:#FFFFFF;stroke:#0F31AC;stroke-width:2;stroke-miterlimit:10;" width="223.445" height="73.355"/>
			
				<rect x="1841.263" y="2947.908" style="fill:#FFFFFF;stroke:#0F31AC;stroke-width:2;stroke-miterlimit:10;" width="223.445" height="73.355"/>
			
				<rect x="2064.708" y="2947.908" style="fill:#FFFFFF;stroke:#0F31AC;stroke-width:2;stroke-miterlimit:10;" width="223.445" height="73.355"/>
			
				<rect x="2288.153" y="2947.908" style="fill:#FFFFFF;stroke:#0F31AC;stroke-width:2;stroke-miterlimit:10;" width="223.445" height="73.355"/>
			
				<rect x="2511.598" y="2947.908" style="fill:#FFFFFF;stroke:#0F31AC;stroke-width:2;stroke-miterlimit:10;" width="223.445" height="73.355"/>
			
				<rect x="2735.043" y="2947.908" style="fill:#FFFFFF;stroke:#0F31AC;stroke-width:2;stroke-miterlimit:10;" width="223.445" height="73.355"/>
			
				<rect x="2958.488" y="2947.908" style="fill:#FFFFFF;stroke:#0F31AC;stroke-width:2;stroke-miterlimit:10;" width="223.445" height="73.355"/>
			
				<rect x="3181.933" y="2947.908" style="fill:#FFFFFF;stroke:#0F31AC;stroke-width:2;stroke-miterlimit:10;" width="223.445" height="73.355"/>
			
				<rect x="3405.378" y="2947.908" style="fill:#FFFFFF;stroke:#0F31AC;stroke-width:2;stroke-miterlimit:10;" width="223.445" height="73.355"/>
			
				<rect x="1394.373" y="3021.263" style="fill:#CDD7FB;stroke:#0F31AC;stroke-width:2;stroke-miterlimit:10;" width="223.445" height="73.355"/>
			
				<rect x="1617.818" y="3021.263" style="fill:#FFFFFF;stroke:#0F31AC;stroke-width:2;stroke-miterlimit:10;" width="223.445" height="73.355"/>
			
				<rect x="1841.263" y="3021.263" style="fill:#FFFFFF;stroke:#0F31AC;stroke-width:2;stroke-miterlimit:10;" width="223.445" height="73.355"/>
			
				<rect x="2064.708" y="3021.263" style="fill:#FFFFFF;stroke:#0F31AC;stroke-width:2;stroke-miterlimit:10;" width="223.445" height="73.355"/>
			
				<rect x="2288.153" y="3021.263" style="fill:#FFFFFF;stroke:#0F31AC;stroke-width:2;stroke-miterlimit:10;" width="223.445" height="73.355"/>
			
				<rect x="2511.598" y="3021.263" style="fill:#FFFFFF;stroke:#0F31AC;stroke-width:2;stroke-miterlimit:10;" width="223.445" height="73.355"/>
			
				<rect x="2735.043" y="3021.263" style="fill:#FFFFFF;stroke:#0F31AC;stroke-width:2;stroke-miterlimit:10;" width="223.445" height="73.355"/>
			
				<rect x="2958.488" y="3021.263" style="fill:#FFFFFF;stroke:#0F31AC;stroke-width:2;stroke-miterlimit:10;" width="223.445" height="73.355"/>
			
				<rect x="3181.933" y="3021.263" style="fill:#FFFFFF;stroke:#0F31AC;stroke-width:2;stroke-miterlimit:10;" width="223.445" height="73.355"/>
			
				<rect x="3405.378" y="3021.263" style="fill:#FFFFFF;stroke:#0F31AC;stroke-width:2;stroke-miterlimit:10;" width="223.445" height="73.355"/>
			
				<rect x="1394.373" y="3094.617" style="fill:#CDD7FB;stroke:#0F31AC;stroke-width:2;stroke-miterlimit:10;" width="223.445" height="73.355"/>
			
				<rect x="1617.818" y="3094.617" style="fill:#FFFFFF;stroke:#0F31AC;stroke-width:2;stroke-miterlimit:10;" width="223.445" height="73.355"/>
			
				<rect x="1841.263" y="3094.617" style="fill:#FFFFFF;stroke:#0F31AC;stroke-width:2;stroke-miterlimit:10;" width="223.445" height="73.355"/>
			
				<rect x="2064.708" y="3094.617" style="fill:#FFFFFF;stroke:#0F31AC;stroke-width:2;stroke-miterlimit:10;" width="223.445" height="73.355"/>
			
				<rect x="2288.153" y="3094.617" style="fill:#FFFFFF;stroke:#0F31AC;stroke-width:2;stroke-miterlimit:10;" width="223.445" height="73.355"/>
			
				<rect x="2511.598" y="3094.617" style="fill:#FFFFFF;stroke:#0F31AC;stroke-width:2;stroke-miterlimit:10;" width="223.445" height="73.355"/>
			
				<rect x="2735.043" y="3094.617" style="fill:#FFFFFF;stroke:#0F31AC;stroke-width:2;stroke-miterlimit:10;" width="223.445" height="73.355"/>
			
				<rect x="2958.488" y="3094.617" style="fill:#FFFFFF;stroke:#0F31AC;stroke-width:2;stroke-miterlimit:10;" width="223.445" height="73.355"/>
			
				<rect x="3181.933" y="3094.617" style="fill:#FFFFFF;stroke:#0F31AC;stroke-width:2;stroke-miterlimit:10;" width="223.445" height="73.355"/>
			
				<rect x="3405.378" y="3094.617" style="fill:#FFFFFF;stroke:#0F31AC;stroke-width:2;stroke-miterlimit:10;" width="223.445" height="73.355"/>
		</g>
		<g>
			<path style="fill:#FDB606;" d="M1517.917,1867.593h-68.819c-2.762,0-5-2.239-5-5V1769c0-2.761,2.238-5,5-5h68.819
				c2.761,0,5,2.239,5,5v93.593C1522.917,1865.354,1520.679,1867.593,1517.917,1867.593z"/>
			<path style="fill:#FFFFFF;" d="M1529.803,1884.107h-41.295c-2.761,0-5-2.239-5-5v-69.92c0-2.761,2.239-5,5-5h41.295
				c2.761,0,5,2.239,5,5v69.92C1534.803,1881.868,1532.564,1884.107,1529.803,1884.107z"/>
			<path style="fill:#CDD7FB;" d="M1653.661,1841.914h-95.092c-2.761,0-5-2.239-5-5v-25.722c0-2.762,2.239-5,5-5h95.092
				c2.761,0,5,2.238,5,5v25.722C1658.661,1839.676,1656.423,1841.914,1653.661,1841.914z"/>
			<path style="fill:#CDD7FB;" d="M1947.044,1884.107h-95.092c-2.761,0-5-2.239-5-5v-25.722c0-2.761,2.239-5,5-5h95.092
				c2.761,0,5,2.239,5,5v25.722C1952.044,1881.868,1949.806,1884.107,1947.044,1884.107z"/>
			<path style="fill:#FFFFFF;" d="M2187.881,1816.689h-51.304c-2.761,0-5-2.239-5-5v-41.797c0-2.761,2.239-5,5-5h51.304
				c2.761,0,5,2.239,5,5v41.797C2192.881,1814.451,2190.642,1816.689,2187.881,1816.689z"/>
			<path style="fill:#FDDAD2;" d="M2139.088,1884.107h-26.282c-2.761,0-5-2.239-5-5v-26.161c0-2.761,2.239-5,5-5h26.282
				c2.761,0,5,2.239,5,5v26.161C2144.088,1881.868,2141.849,1884.107,2139.088,1884.107z"/>
			<path style="fill:#C2ABD3;" d="M2187.881,1884.107h-26.282c-2.761,0-5-2.239-5-5v-26.161c0-2.761,2.239-5,5-5h26.282
				c2.761,0,5,2.239,5,5v26.161C2192.881,1881.868,2190.642,1884.107,2187.881,1884.107z"/>
			<path style="fill:#CDD7FB;" d="M2285.466,1812.368h-26.282c-2.761,0-5-2.239-5-5v-37.475c0-2.761,2.239-5,5-5h26.282
				c2.761,0,5,2.239,5,5v37.475C2290.466,1810.129,2288.228,1812.368,2285.466,1812.368z"/>
			<path style="fill:#CDD7FB;" d="M2285.466,1884.107h-26.282c-2.761,0-5-2.239-5-5v-37.475c0-2.761,2.239-5,5-5h26.282
				c2.761,0,5,2.239,5,5v37.475C2290.466,1881.868,2288.228,1884.107,2285.466,1884.107z"/>
			<path style="fill:#CDD7FB;" d="M2363.66,1812.368h-56.934c-2.761,0-5-2.239-5-5v-37.475c0-2.761,2.239-5,5-5h56.934
				c2.761,0,5,2.239,5,5v37.475C2368.66,1810.129,2366.421,1812.368,2363.66,1812.368z"/>
			<path style="fill:#CDD7FB;" d="M2363.66,1884.107h-56.934c-2.761,0-5-2.239-5-5v-37.475c0-2.761,2.239-5,5-5h56.934
				c2.761,0,5,2.239,5,5v37.475C2368.66,1881.868,2366.421,1884.107,2363.66,1884.107z"/>
			<path style="fill:#CDD7FB;" d="M2691.448,1812.368h-304.651c-2.761,0-5-2.239-5-5v-37.475c0-2.761,2.239-5,5-5h304.651
				c2.761,0,5,2.239,5,5v37.475C2696.448,1810.129,2694.209,1812.368,2691.448,1812.368z"/>
			<path style="fill:#FFFFFF;" d="M2863.474,1884.561h-102.599c-2.761,0-5-2.239-5-5v-109.668c0-2.761,2.239-5,5-5h102.599
				c2.761,0,5,2.239,5,5v109.668C2868.474,1882.322,2866.235,1884.561,2863.474,1884.561z"/>
			<path style="fill:#FFFFFF;" d="M3002.346,1884.561h-102.599c-2.761,0-5-2.239-5-5v-109.668c0-2.761,2.239-5,5-5h102.599
				c2.761,0,5,2.239,5,5v109.668C3007.346,1882.322,3005.107,1884.561,3002.346,1884.561z"/>
			<path style="fill:#FFFFFF;" d="M3141.218,1884.561h-102.599c-2.761,0-5-2.239-5-5v-109.668c0-2.761,2.239-5,5-5h102.599
				c2.761,0,5,2.239,5,5v109.668C3146.218,1882.322,3143.979,1884.561,3141.218,1884.561z"/>
			<path style="fill:#FFFFFF;" d="M3280.09,1884.561h-102.599c-2.761,0-5-2.239-5-5v-109.668c0-2.761,2.239-5,5-5h102.599
				c2.761,0,5,2.239,5,5v109.668C3285.09,1882.322,3282.851,1884.561,3280.09,1884.561z"/>
			<path style="fill:#FFFFFF;" d="M3418.962,1884.561h-102.599c-2.761,0-5-2.239-5-5v-109.668c0-2.761,2.239-5,5-5h102.599
				c2.761,0,5,2.239,5,5v109.668C3423.962,1882.322,3421.723,1884.561,3418.962,1884.561z"/>
			<path style="fill:#CDD7FB;" d="M2691.448,1884.107h-304.651c-2.761,0-5-2.239-5-5v-37.475c0-2.761,2.239-5,5-5h304.651
				c2.761,0,5,2.239,5,5v37.475C2696.448,1881.868,2694.209,1884.107,2691.448,1884.107z"/>
			<g>
				<path style="fill:#CDD7FB;" d="M1813.802,1884.107h-95.092c-2.761,0-5-2.239-5-5v-25.722c0-2.761,2.239-5,5-5h95.092
					c2.761,0,5,2.239,5,5v25.722C1818.802,1881.868,1816.564,1884.107,1813.802,1884.107z"/>
				<path style="fill:#CDD7FB;" d="M2080.286,1884.107h-95.092c-2.761,0-5-2.239-5-5v-25.722c0-2.761,2.239-5,5-5h95.092
					c2.761,0,5,2.239,5,5v25.722C2085.286,1881.868,2083.048,1884.107,2080.286,1884.107z"/>
			</g>
			<path style="fill:#FFFFFF;" d="M2115.317,1817.583H1718.71c-2.761,0-5-2.239-5-5V1769c0-2.761,2.239-5,5-5h396.607
				c2.761,0,5,2.239,5,5v43.583C2120.317,1815.344,2118.078,1817.583,2115.317,1817.583z"/>
			<g>
				<path style="fill:#CDD7FB;" d="M1653.661,1799.722h-95.092c-2.761,0-5-2.238-5-5V1769c0-2.761,2.239-5,5-5h95.092
					c2.761,0,5,2.239,5,5v25.722C1658.661,1797.483,1656.423,1799.722,1653.661,1799.722z"/>
				<path style="fill:#CDD7FB;" d="M1653.661,1884.107h-95.092c-2.761,0-5-2.239-5-5v-25.722c0-2.761,2.239-5,5-5h95.092
					c2.761,0,5,2.239,5,5v25.722C1658.661,1881.868,1656.423,1884.107,1653.661,1884.107z"/>
			</g>
			<g>
				<path style="fill:#CDD7FB;" d="M3574.098,1842.807h-95.092c-2.761,0-5-2.238-5-5v-25.722c0-2.761,2.239-5,5-5h95.092
					c2.761,0,5,2.239,5,5v25.722C3579.098,1840.569,3576.86,1842.807,3574.098,1842.807z"/>
				<g>
					<path style="fill:#CDD7FB;" d="M3574.098,1800.615h-95.092c-2.761,0-5-2.239-5-5v-25.722c0-2.761,2.239-5,5-5h95.092
						c2.761,0,5,2.239,5,5v25.722C3579.098,1798.376,3576.86,1800.615,3574.098,1800.615z"/>
					<path style="fill:#CDD7FB;" d="M3574.098,1885h-95.092c-2.761,0-5-2.239-5-5v-25.722c0-2.762,2.239-5,5-5h95.092
						c2.761,0,5,2.238,5,5V1880C3579.098,1882.761,3576.86,1885,3574.098,1885z"/>
				</g>
			</g>
		</g>
		
			<rect x="2957.323" y="2142" style="fill:#FFFFFF;stroke:#0F31AC;stroke-width:2.8314;stroke-miterlimit:10;" width="671.5" height="733"/>
		<g>
			<g>
				
					<rect x="1841.048" y="2141.5" style="fill:#FBB5A5;stroke:#0F31AC;stroke-width:0.8919;stroke-miterlimit:10;" width="669" height="73"/>
				
					<rect x="1841.048" y="2214.5" style="fill:#F4F6FC;stroke:#0F31AC;stroke-width:0.8924;stroke-miterlimit:10;" width="669" height="73"/>
				
					<rect x="1841.048" y="2287.5" style="fill:#F4F6FC;stroke:#0F31AC;stroke-width:0.8924;stroke-miterlimit:10;" width="669" height="73"/>
				
					<rect x="1841.048" y="2360.5" style="fill:#F4F6FC;stroke:#0F31AC;stroke-width:0.8924;stroke-miterlimit:10;" width="669" height="73"/>
				
					<rect x="1841.048" y="2433.5" style="fill:#F4F6FC;stroke:#0F31AC;stroke-width:0.8924;stroke-miterlimit:10;" width="669" height="73"/>
				
					<rect x="2512.048" y="2141.5" transform="matrix(-1 -1.224647e-16 1.224647e-16 -1 5245.0962 4356)" style="fill:#FBB5A5;stroke:#0F31AC;stroke-width:0.5126;stroke-miterlimit:10;" width="221" height="73"/>
				
					<rect x="2512.048" y="2214.5" transform="matrix(-1 -1.224647e-16 1.224647e-16 -1 5245.0962 4502)" style="fill:#F4F6FC;stroke:#0F31AC;stroke-width:0.5129;stroke-miterlimit:10;" width="221" height="73"/>
				
					<rect x="2512.048" y="2287.5" transform="matrix(-1 -1.224647e-16 1.224647e-16 -1 5245.0962 4648)" style="fill:#F4F6FC;stroke:#0F31AC;stroke-width:0.5129;stroke-miterlimit:10;" width="221" height="73"/>
				
					<rect x="1841.048" y="2655.5" style="fill:#A2E0AF;stroke:#0F31AC;stroke-width:0.8919;stroke-miterlimit:10;" width="669" height="73"/>
				
					<rect x="1841.048" y="2728.5" style="fill:#F4F6FC;stroke:#0F31AC;stroke-width:0.8924;stroke-miterlimit:10;" width="669" height="73"/>
				
					<rect x="1841.048" y="2801.5" style="fill:#F4F6FC;stroke:#0F31AC;stroke-width:0.8924;stroke-miterlimit:10;" width="669" height="73"/>
				
					<rect x="2512.048" y="2655.5" transform="matrix(-1 -1.224647e-16 1.224647e-16 -1 5245.0962 5384)" style="fill:#A2E0AF;stroke:#0F31AC;stroke-width:0.5126;stroke-miterlimit:10;" width="221" height="73"/>
				
					<rect x="2512.048" y="2728.5" transform="matrix(-1 -1.224647e-16 1.224647e-16 -1 5245.0962 5530)" style="fill:#F4F6FC;stroke:#0F31AC;stroke-width:0.5129;stroke-miterlimit:10;" width="221" height="73"/>
				
					<rect x="2512.048" y="2801.5" transform="matrix(-1 -1.224647e-16 1.224647e-16 -1 5245.0962 5676)" style="fill:#F4F6FC;stroke:#0F31AC;stroke-width:0.5129;stroke-miterlimit:10;" width="221" height="73"/>
				
					<rect x="2512.048" y="2360.5" transform="matrix(-1 -1.224647e-16 1.224647e-16 -1 5245.0962 4794)" style="fill:#F4F6FC;stroke:#0F31AC;stroke-width:0.5129;stroke-miterlimit:10;" width="221" height="73"/>
				
					<rect x="2512.048" y="2433.5" transform="matrix(-1 -1.224647e-16 1.224647e-16 -1 5245.0962 4940)" style="fill:#F4F6FC;stroke:#0F31AC;stroke-width:0.5129;stroke-miterlimit:10;" width="221" height="73"/>
			</g>
			<g>
				<g>
					
						<line style="fill:none;stroke:#FFFFFF;stroke-width:5;stroke-linecap:round;stroke-miterlimit:10;" x1="1923.048" y1="2177.5" x2="2301.969" y2="2177.5"/>
					
						<line style="fill:none;stroke:#FFFFFF;stroke-width:5;stroke-linecap:round;stroke-miterlimit:10;" x1="1923.048" y1="2695.5" x2="2270.212" y2="2695.5"/>
					
						<line style="fill:none;stroke:#FFFFFF;stroke-width:5;stroke-linecap:round;stroke-miterlimit:10;" x1="2691.048" y1="2177.5" x2="2569.758" y2="2177.5"/>
					
						<line style="fill:none;stroke:#FFFFFF;stroke-width:5;stroke-linecap:round;stroke-miterlimit:10;" x1="2685.965" y1="2695.5" x2="2574.841" y2="2695.5"/>
				</g>
				<g>
					
						<line style="fill:none;stroke:#0F31AC;stroke-width:5;stroke-linecap:round;stroke-miterlimit:10;" x1="1923.048" y1="2251.5" x2="2351.048" y2="2251.5"/>
					
						<line style="fill:none;stroke:#0F31AC;stroke-width:5;stroke-linecap:round;stroke-miterlimit:10;" x1="1923.048" y1="2325.5" x2="2179.283" y2="2325.5"/>
					
						<line style="fill:none;stroke:#0F31AC;stroke-width:5;stroke-linecap:round;stroke-miterlimit:10;" x1="1923.048" y1="2399.5" x2="2258.518" y2="2399.5"/>
					
						<line style="fill:none;stroke:#0F31AC;stroke-width:5;stroke-linecap:round;stroke-miterlimit:10;" x1="1923.048" y1="2473.5" x2="2212.471" y2="2473.5"/>
					
						<line style="fill:none;stroke:#0F31AC;stroke-width:5;stroke-linecap:round;stroke-miterlimit:10;" x1="1923.048" y1="2769.5" x2="2118.584" y2="2769.5"/>
					
						<line style="fill:none;stroke:#0F31AC;stroke-width:5;stroke-linecap:round;stroke-miterlimit:10;" x1="1923.048" y1="2843.5" x2="2249.958" y2="2843.5"/>
					
						<line style="fill:none;stroke:#0F31AC;stroke-width:4.3773;stroke-linecap:round;stroke-miterlimit:10;" x1="2682.903" y1="2251.5" x2="2577.903" y2="2251.5"/>
					
						<line style="fill:none;stroke:#0F31AC;stroke-width:5;stroke-linecap:round;stroke-miterlimit:10;" x1="2671.413" y1="2325.5" x2="2589.394" y2="2325.5"/>
					
						<line style="fill:none;stroke:#0F31AC;stroke-width:4.3773;stroke-linecap:round;stroke-miterlimit:10;" x1="2671.553" y1="2399.5" x2="2589.253" y2="2399.5"/>
					
						<line style="fill:none;stroke:#0F31AC;stroke-width:5;stroke-linecap:round;stroke-miterlimit:10;" x1="2676.724" y1="2473.5" x2="2584.082" y2="2473.5"/>
					
						<line style="fill:none;stroke:#0F31AC;stroke-width:5;stroke-linecap:round;stroke-miterlimit:10;" x1="2661.698" y1="2769.5" x2="2599.108" y2="2769.5"/>
					
						<line style="fill:none;stroke:#0F31AC;stroke-width:4.3773;stroke-linecap:round;stroke-miterlimit:10;" x1="2670.503" y1="2843.5" x2="2590.303" y2="2843.5"/>
				</g>
			</g>
		</g>
		<g>
			<g>
				<g>
					<g>
						<path style="fill:#ACBCF8;" d="M3354.615,2628.77h-195.752c-1.958,0-3.544-1.587-3.544-3.544v-1.459
							c0-1.958,1.587-3.544,3.544-3.544h195.752c1.958,0,3.544,1.587,3.544,3.544v1.459
							C3358.16,2627.183,3356.573,2628.77,3354.615,2628.77z"/>
						<path style="fill:#ACBCF8;" d="M3464.938,2649.395h-306.074c-1.958,0-3.544-1.587-3.544-3.545v-1.221
							c0-1.958,1.587-3.544,3.544-3.544h306.074c1.958,0,3.544,1.587,3.544,3.544v1.221
							C3468.483,2647.808,3466.896,2649.395,3464.938,2649.395z"/>
					</g>
					<g>
						<path style="fill:#ACBCF8;" d="M3279.24,2673.639h-120.376c-1.958,0-3.544-1.587-3.544-3.544v-2.861
							c0-1.958,1.587-3.544,3.544-3.544h120.376c1.958,0,3.544,1.587,3.544,3.544v2.861
							C3282.784,2672.052,3281.197,2673.639,3279.24,2673.639z"/>
						<path style="fill:#ACBCF8;" d="M3437.382,2692.568h-278.518c-1.958,0-3.544-1.587-3.544-3.544v-0.927
							c0-1.958,1.587-3.544,3.544-3.544h278.518c1.958,0,3.544,1.587,3.544,3.544v0.927
							C3440.926,2690.981,3439.339,2692.568,3437.382,2692.568z"/>
					</g>
					<g>
						<path style="fill:#ACBCF8;" d="M3302.671,2715.926h-143.807c-1.958,0-3.544-1.587-3.544-3.544v-1.681
							c0-1.958,1.587-3.544,3.544-3.544h143.807c1.958,0,3.544,1.587,3.544,3.544v1.681
							C3306.216,2714.339,3304.629,2715.926,3302.671,2715.926z"/>
						<path style="fill:#ACBCF8;" d="M3493.544,2736.035h-334.68c-1.958,0-3.544-1.587-3.544-3.544v-0.927
							c0-1.958,1.587-3.544,3.544-3.544h334.68c1.958,0,3.544,1.587,3.544,3.544v0.927
							C3497.089,2734.448,3495.502,2736.035,3493.544,2736.035z"/>
					</g>
				</g>
				<g>
					<circle style="fill:#829CF8;" cx="3098.873" cy="2630.172" r="9.815"/>
					<circle style="fill:#ACBCF8;" cx="3098.873" cy="2673.639" r="9.815"/>
					
						<ellipse transform="matrix(0.2298 -0.9732 0.9732 0.2298 -257.5209 5108.8213)" style="fill:#E3E9F7;" cx="3098.873" cy="2717.106" rx="9.815" ry="9.815"/>
				</g>
			</g>
			<g>
				<g>
					<path style="fill:#E3E9F7;" d="M3258.74,2358.959c-6.436-15.212-15.637-28.867-27.359-40.585
						c-11.719-11.722-25.373-20.923-40.585-27.359c-15.717-6.65-32.387-10.027-49.556-10.05v33.434
						c51.936,0.09,94.026,42.18,94.116,94.116h33.434C3268.767,2391.346,3265.39,2374.676,3258.74,2358.959z"/>
					<path style="fill:#829CF8;" d="M3238.185,2491.638c-2.163,2.528-4.43,4.978-6.804,7.352
						c-11.719,11.722-25.373,20.923-40.585,27.359c-15.767,6.67-32.494,10.05-49.723,10.05s-33.955-3.38-49.723-10.05
						c-15.212-6.436-28.867-15.637-40.585-27.359c-11.722-11.719-20.923-25.373-27.359-40.585
						c-6.67-15.768-10.05-32.494-10.05-49.723s3.38-33.956,10.05-49.723c6.436-15.212,15.637-28.867,27.359-40.585
						c11.719-11.722,25.373-20.923,40.585-27.359c15.768-6.67,32.494-10.05,49.723-10.05h0.167v33.434h-0.167
						c-52.07,0-94.283,42.214-94.283,94.284c0,52.07,42.214,94.283,94.283,94.283c28.716,0,54.437-12.839,71.729-33.093
						L3238.185,2491.638z"/>
					<path style="fill:#ACBCF8;" d="M3268.79,2408.515v0.167c0,17.229-3.38,33.955-10.05,49.723
						c-5.132,12.133-12.026,23.277-20.555,33.233l-25.383-21.765c14.066-16.469,22.554-37.837,22.554-61.191v-0.167H3268.79z"/>
				</g>
				<g>
					<path style="fill:#829CF8;" d="M3562.74,2358.959c-6.436-15.212-15.637-28.867-27.359-40.585
						c-11.719-11.722-25.373-20.923-40.585-27.359c-15.717-6.65-32.387-10.027-49.556-10.05v33.434
						c51.936,0.09,94.026,42.18,94.116,94.116h33.434C3572.767,2391.346,3569.39,2374.676,3562.74,2358.959z"/>
					<path style="fill:#ACBCF8;" d="M3542.185,2491.638c-2.163,2.528-4.43,4.978-6.804,7.352
						c-11.719,11.722-25.373,20.923-40.585,27.359c-15.767,6.67-32.494,10.05-49.723,10.05s-33.955-3.38-49.723-10.05
						c-15.212-6.436-28.867-15.637-40.585-27.359c-11.722-11.719-20.923-25.373-27.359-40.585
						c-6.67-15.768-10.05-32.494-10.05-49.723s3.38-33.956,10.05-49.723c6.436-15.212,15.637-28.867,27.359-40.585
						c11.719-11.722,25.373-20.923,40.585-27.359c15.768-6.67,32.494-10.05,49.723-10.05h0.167v33.434h-0.167
						c-52.07,0-94.283,42.214-94.283,94.284c0,52.07,42.214,94.283,94.283,94.283c28.716,0,54.437-12.839,71.729-33.093
						L3542.185,2491.638z"/>
					<path style="fill:#E3E9F7;" d="M3572.79,2408.515v0.167c0,17.229-3.38,33.955-10.05,49.723
						c-5.132,12.133-12.026,23.277-20.555,33.233l-25.383-21.765c14.066-16.469,22.554-37.837,22.554-61.191v-0.167H3572.79z"/>
				</g>
			</g>
		</g>
	</g>
	<g>
		<path style="fill:#040C2B;" d="M1132.387,3558.206c0,0-25.143,60.931-7.736,61.471c0,0,14.828,8.088,52.866,0
			c0,0,10.315-4.314,23.854-3.775c0,0,36.748-1.078,42.551-0.539c5.802,0.539-35.459-43.677-35.459-43.677l-17.407-16.176
			L1132.387,3558.206z"/>
		<path style="fill:#081956;" d="M1128.951,3567.135c0,0,26.723,19.482,67.024-3.985c0.671-0.383,1.341-0.782,2.018-1.197
			c0,0-1.773-32.979,2.411-82.204c2.011-23.715,1.418-56.607,10.638-81.152l61.698-283.806l0.193-0.9l-5.138,0.426l-79.692,6.616
			l-6.073,0.507c0,0-25.143,32.353-16.762,87.893c0,0,4.513,49.608,0,84.657l-5.802,58.235c0,0-26.433,61.471-29.012,131.569
			L1128.951,3567.135z"/>
		<path style="opacity:0.15;" d="M1200.403,3238.72l-4.429,324.431c0.671-0.383,1.341-0.782,2.018-1.197
			c0,0-1.773-32.979,2.411-82.204c2.011-23.715,1.418-56.607,10.638-81.152l61.698-283.806l-4.945-0.474l-75.746-7.253
			c0,0-2.044,4.75-3.946,13.869C1183.97,3140.809,1180.514,3181.423,1200.403,3238.72z"/>
		<path style="fill:#040C2B;" d="M1272.932,3583.549l48.353,33.431c0,0,24.499,10.245,61.247,11.323c0,0,32.88,22.108-12.894,29.118
			c0,0-20.63,7.549-68.339,3.774c0,0-48.353,0-61.247,1.079c0,0-42.551,2.157-39.327-20.49c0,0,0.645-27.5,15.473-52.304
			L1272.932,3583.549z"/>
		<path style="fill:#081956;" d="M1318.062,3121.979c0,0,21.275,63.088,5.158,149.363l-30.301,132.647
			c0,0-22.565,172.01-9.671,185.491c0,0-37.393,21.569-72.207,6.47c0,0-18.697-154.755-5.802-205.981l5.288-136.62
			c0.326-8.43-0.916-16.847-3.682-24.958c-9.335-27.378-29.606-95.703-11.277-126.364L1318.062,3121.979z"/>
		<polygon points="1390.269,3059.969 1364.48,3051.881 1473.768,3048.527 1454.094,3058.352 		"/>
		<path style="fill:#DE995F;" d="M1378.019,3060.509c0,0,37.393-8.088,52.866-3.774c0,0,20.631-0.539,34.169-4.853
			c0,0,17.407,5.392-14.828,14.02c0,0-59.313,20.49-74.141,12.402L1378.019,3060.509z"/>
		<polygon style="fill:#262C87;" points="1525.012,2957.518 1468.278,2973.695 1439.266,3049.725 1488.908,3051.881 		"/>
		<polygon style="fill:#FFFFFF;" points="1519.99,2961.799 1470.855,2975.809 1443.608,3047.213 1486.595,3049.081 		"/>
		<polygon style="fill:#262C87;" points="1485.685,3048.107 1485.685,3052.96 1364.48,3054.577 1364.48,3049.185 		"/>
		<path style="fill:#DE995F;" d="M1309.681,3051.881l3.662-0.437l10.586-1.267l9.264-1.105l3.565-0.426
			c13.216,2.966,32.88-10.784,32.88-10.784c13.539-5.392,34.169,5.931,34.169,5.931c13.539,4.853,12.249-2.157,12.249-2.157
			c-5.254-18.021-29.353-19.919-38.089-20.005c-1.915-0.022-3.823,0.232-5.648,0.728l-43.434,11.793l-3.733,1.014h-12.249
			l-0.406,2.103L1309.681,3051.881z"/>
		<path style="fill:#DE995F;" d="M1196.857,2883.646l71.272,11.178l0.935,0.146c0,0,3.655-8.698,9.29-16.16
			c-2.527-0.906-5.119-2.097-7.691-3.65l3.881-30.067l6.808,3.116l-17.446-52.994l-14.403,5.91l-52.646,21.59
			C1196.857,2822.714,1215.554,2858.842,1196.857,2883.646z"/>
		<path style="opacity:0.15;" d="M1268.13,2894.823l0.935,0.146c0,0,3.655-8.698,9.29-16.16c-2.527-0.906-5.119-2.097-7.691-3.65
			L1268.13,2894.823z"/>
		<path style="fill:#FFFFFF;" d="M1138.189,2999.577l37.522,132.529c0,0,131.513,23.866,149.178,19.811
			c0,0,2.521-22.658,5.628-64.561c0.535-7.219-1.876-14.823-3.681-22.739c-0.413-1.823-0.864-3.667-1.347-5.521
			c-0.11-0.426-0.219-0.857-0.335-1.283l-1.225-7.635l-2.418-15.012l-6.37-39.632l-15.131-94.093c0,0-43.195-25.343-58.023-26.961
			h-41.261C1200.726,2874.479,1118.848,2904.136,1138.189,2999.577z"/>
		<path style="opacity:0.15;" d="M1310.003,2995.533l2.495,41.735l0.844,14.176l0.529,8.795l11.618-1.143
			c-0.11-0.426-0.219-0.857-0.335-1.283l-1.225-7.635l9.264-1.105l-4.307-14.92l-3.733,1.014h-3.643l-6.37-39.632H1310.003z"/>
		<path style="opacity:0.15;" d="M1241.02,3013.327c0,0-8.381,79.265,37.393,76.03l52.105-2c-0.703-7.209-1.876-14.823-3.681-22.739
			l-45.2-12.467l-16.485-140.525C1265.151,2911.626,1229.415,2938.376,1241.02,3013.327z"/>
		<path style="fill:#FFFFFF;" d="M1319.996,2926.244c0,0-6.447-49.608-58.023-12.402c0,0-19.664,23.456-17.085,70.368l2.901,69.828
			c0,0,1.934,37.745,41.906,31.814l96.383-5.659c0,0,9.469-15.91-5.42-20.223c0,0-30.039-5.662-64.209-13.211
			C1316.45,3046.759,1326.443,2948.352,1319.996,2926.244z"/>
		<path style="fill:#DE995F;" d="M1249.504,2801.124c11.553-19.972,38.901-22.625,38.901-22.625s31.59,14.559,31.59,63.089
			c0,0,1.115,11.388-2.431,22.081c-2.482,7.479-7.246,14.618-16.266,17.282c0,0-10.199,2.135-22.03-1.823
			c-0.303-0.103-0.606-0.205-0.916-0.318c-2.527-0.906-5.119-2.097-7.691-3.65c-10.863-6.546-21.391-19.547-25.453-44.895
			C1243.218,2817.823,1245.326,2808.344,1249.504,2801.124z"/>
		<path style="opacity:0.15;" d="M1270.663,2875.158c2.572,1.553,5.164,2.745,7.691,3.65c2.901-3.839,6.325-7.349,10.051-9.183
			l-7.053-21.418l-6.808-3.116L1270.663,2875.158z"/>
		<path d="M1220.067,2768.253c0,0-56.894,29.114-14.908,87.621l23.29-0.268c0,0,10.315-40.441,28.367-47.99
			c0,0,13.745-3.943,14.609,10.431l0.219,18.687l5.572-1.097l0.23-16.697c0,0,5.357-29.702,21.053-33.185
			C1298.498,2785.755,1284.537,2749.381,1220.067,2768.253z"/>
		<path d="M1279.27,2879.127c11.83,3.958,22.03,1.823,22.03,1.823c9.019-2.664,13.784-9.803,16.266-17.282
			c-27.651,13.119-40.442-28.282-40.442-28.282h-5.158C1271.63,2858.135,1275.492,2871.519,1279.27,2879.127z"/>
		<path style="opacity:0.15;" d="M1317.095,3046.759c0,0-16.118,0.539-29.012,13.48
			C1288.083,3060.239,1302.911,3042.445,1317.095,3046.759z"/>
	</g>
	<g>
		<g>
			<polygon style="fill:#829CF8;" points="3618.634,3100.977 3443.613,3100.977 3366.603,2892.502 3541.625,2892.502 			"/>
			<g>
				<g>
					<g>
						<polygon style="fill:#ACBCF8;" points="3515.098,2956.485 3403.097,2956.485 3397.25,2940.654 3509.251,2940.654 						"/>
						<path style="fill:#0F31AC;" d="M3515.209,2956.581h-112.15l-5.919-16.024h112.15L3515.209,2956.581z M3403.136,2956.388
							h111.851l-5.776-15.637H3397.36L3403.136,2956.388z"/>
					</g>
					<g>
						<polygon style="fill:#FFFFFF;" points="3515.098,2956.485 3403.097,2956.485 3408.945,2972.315 3520.946,2972.315 						"/>
						<path style="fill:#0F31AC;" d="M3521.056,2972.411h-112.15l-5.919-16.024h112.15L3521.056,2972.411z M3408.984,2972.218
							h111.852l-5.776-15.637h-111.851L3408.984,2972.218z"/>
					</g>
					<g>
						<polygon style="fill:#FFFFFF;" points="3520.946,2972.315 3408.945,2972.315 3414.792,2988.145 3526.793,2988.145 						"/>
						<path style="fill:#0F31AC;" d="M3526.904,2988.241h-112.15l-5.919-16.023h112.15L3526.904,2988.241z M3414.832,2988.048
							h111.852l-5.776-15.637h-111.852L3414.832,2988.048z"/>
					</g>
					<g>
						<polygon style="fill:#FFFFFF;" points="3526.793,2988.145 3414.792,2988.145 3420.64,3003.975 3532.641,3003.975 						"/>
						<path style="fill:#0F31AC;" d="M3532.751,3004.072h-112.15l-5.919-16.024h112.15L3532.751,3004.072z M3420.679,3003.878
							h111.851l-5.776-15.637h-111.851L3420.679,3003.878z"/>
					</g>
					<g>
						<polygon style="fill:#FFFFFF;" points="3532.641,3003.975 3420.64,3003.975 3426.488,3019.805 3538.489,3019.805 						"/>
						<path style="fill:#0F31AC;" d="M3538.599,3019.902h-112.15l-5.919-16.024h112.15L3538.599,3019.902z M3426.527,3019.708
							h111.852l-5.776-15.636H3420.75L3426.527,3019.708z"/>
					</g>
					<g>
						<polygon style="fill:#ACBCF8;" points="3515.433,2956.485 3552.432,2956.485 3546.584,2940.654 3509.586,2940.654 						"/>
						<path style="fill:#0F31AC;" d="M3552.495,2956.54h-37.084l-5.889-15.941h37.084L3552.495,2956.54z M3515.456,2956.429h36.913
							l-5.807-15.719h-36.913L3515.456,2956.429z"/>
					</g>
					<g>
						<polygon style="fill:#FFFFFF;" points="3515.433,2956.485 3552.432,2956.485 3558.279,2972.315 3521.281,2972.315 						"/>
						<path style="fill:#0F31AC;" d="M3558.343,2972.37h-37.085l-5.889-15.941h37.085L3558.343,2972.37z M3521.303,2972.259h36.913
							l-5.807-15.719h-36.913L3521.303,2972.259z"/>
					</g>
					<g>
						<polygon style="fill:#FFFFFF;" points="3521.281,2972.315 3558.279,2972.315 3564.127,2988.145 3527.128,2988.145 						"/>
						<path style="fill:#0F31AC;" d="M3564.191,2988.2h-37.085l-5.888-15.941h37.085L3564.191,2988.2z M3527.151,2988.089h36.913
							l-5.806-15.719h-36.913L3527.151,2988.089z"/>
					</g>
					<g>
						<polygon style="fill:#FFFFFF;" points="3527.128,2988.145 3564.127,2988.145 3569.975,3003.975 3532.976,3003.975 						"/>
						<path style="fill:#0F31AC;" d="M3570.038,3004.031h-37.085l-5.889-15.941h37.085L3570.038,3004.031z M3532.998,3003.919
							h36.913l-5.807-15.719h-36.913L3532.998,3003.919z"/>
					</g>
					<g>
						<polygon style="fill:#FFFFFF;" points="3532.976,3003.975 3569.975,3003.975 3575.822,3019.805 3538.823,3019.805 						"/>
						<path style="fill:#0F31AC;" d="M3575.886,3019.861h-37.085l-5.888-15.941h37.085L3575.886,3019.861z M3538.846,3019.75h36.913
							l-5.806-15.719h-36.913L3538.846,3019.75z"/>
					</g>
				</g>
				<g>
					<g>
						<g>
							<path style="fill:#FFFFFF;" d="M3477.499,2949.003h-63.437c-0.231,0-0.508-0.243-0.619-0.542
								c-0.111-0.299-0.013-0.542,0.219-0.542h63.437c0.231,0,0.508,0.243,0.619,0.542
								C3477.828,2948.76,3477.73,2949.003,3477.499,2949.003z"/>
						</g>
						<g>
							<path style="fill:#FFFFFF;" d="M3542.637,2949.003h-20.306c-0.231,0-0.508-0.243-0.619-0.542
								c-0.111-0.299-0.013-0.542,0.218-0.542h20.306c0.231,0,0.508,0.243,0.619,0.542
								C3542.966,2948.76,3542.868,2949.003,3542.637,2949.003z"/>
						</g>
					</g>
					<g>
						<g>
							<path style="fill:#0F31AC;" d="M3491.643,2965.05h-71.654c-0.231,0-0.508-0.243-0.619-0.542
								c-0.111-0.3-0.013-0.542,0.218-0.542h71.654c0.231,0,0.508,0.243,0.619,0.542
								C3491.972,2964.807,3491.875,2965.05,3491.643,2965.05z"/>
						</g>
						<g>
							<path style="fill:#0F31AC;" d="M3468.815,2981.097h-42.897c-0.231,0-0.508-0.243-0.619-0.542
								c-0.111-0.299-0.013-0.542,0.218-0.542h42.897c0.231,0,0.508,0.243,0.619,0.542
								C3469.144,2980.854,3469.046,2981.097,3468.815,2981.097z"/>
						</g>
						<g>
							<path style="fill:#0F31AC;" d="M3488.008,2997.144h-56.163c-0.231,0-0.508-0.243-0.619-0.542
								c-0.111-0.3-0.013-0.542,0.218-0.542h56.163c0.231,0,0.508,0.243,0.619,0.542
								C3488.336,2996.901,3488.239,2997.144,3488.008,2997.144z"/>
						</g>
						<g>
							<path style="fill:#0F31AC;" d="M3486.226,3013.191h-48.454c-0.231,0-0.508-0.243-0.619-0.542
								c-0.111-0.299-0.013-0.542,0.218-0.542h48.454c0.231,0,0.508,0.243,0.619,0.542
								C3486.555,3012.948,3486.458,3013.191,3486.226,3013.191z"/>
						</g>
						<g>
							<path style="fill:#0F31AC;" d="M3547.176,2964.983h-17.579c-0.202,0-0.445-0.212-0.542-0.475s-0.011-0.475,0.191-0.475
								h17.579c0.202,0,0.445,0.212,0.542,0.475C3547.464,2964.77,3547.378,2964.983,3547.176,2964.983z"/>
						</g>
						<g>
							<path style="fill:#0F31AC;" d="M3551.205,2981.097h-13.731c-0.231,0-0.508-0.243-0.619-0.542
								c-0.111-0.299-0.013-0.542,0.218-0.542h13.731c0.231,0,0.508,0.243,0.619,0.542
								C3551.534,2980.854,3551.436,2981.097,3551.205,2981.097z"/>
						</g>
						<g>
							<path style="fill:#0F31AC;" d="M3557.131,2997.076h-13.778c-0.202,0-0.445-0.212-0.542-0.474
								c-0.097-0.262-0.011-0.475,0.191-0.475h13.778c0.202,0,0.445,0.212,0.542,0.475
								C3557.419,2996.864,3557.333,2997.076,3557.131,2997.076z"/>
						</g>
						<g>
							<path style="fill:#0F31AC;" d="M3563.949,3013.191h-15.51c-0.231,0-0.508-0.243-0.619-0.542
								c-0.111-0.299-0.013-0.542,0.219-0.542h15.51c0.231,0,0.508,0.243,0.619,0.542
								C3564.278,3012.948,3564.181,3013.191,3563.949,3013.191z"/>
						</g>
					</g>
				</g>
			</g>
		</g>
		<path style="fill:#DB965F;" d="M3861.876,2963.938l-39.646,21.978l24.564,57.746l-56.022,96.962c0,0-14.221,1.293-31.028,12.066
			c0,3.318,3.334,5.598,6.426,4.396l9.088-3.534c0,0-21.978,18.1-20.254,34.044c0,0,3.878,22.409,23.702,18.1
			c0,0,18.961,1.724,34.475-39.216l65.069-112.319c3.177-5.484,4.06-12,2.459-18.131L3861.876,2963.938z"/>
		<polygon style="fill:#DB965F;" points="3825.866,3617.743 3787.839,3619.187 3786.747,3590.234 3786.506,3583.808 
			3785.914,3568.164 3823.941,3572.496 3824.422,3583.808 3824.841,3593.675 		"/>
		<path style="fill:#040C2B;" d="M3832.644,3634.156c1.646-9.019,2.568-25.097-7.133-39.219c0,0-21.189,13.86-38.015-4.231
			c0,0-15.683,2.292-55.238,24.597c-4.434,2.5-8.989,4.785-13.631,6.874c-6.39,2.876-16.419,8.208-21.429,15.147
			c-5.161,7.147-1.53,17.253,6.932,19.722c16.231,4.736,61.821,13.547,120.827-13.018
			C3828.991,3642.212,3831.85,3638.508,3832.644,3634.156z"/>
		<path style="fill:#040C2B;" d="M3830.199,3580.195h-45.732l-34.657-235.378l-49.017-232.741l-2.484-11.783l106.843-2.958
			l14.937-0.414c0,0,21.18,31.77,4.816,104.451l-4.816,119.378C3820.089,3320.75,3849.451,3407.393,3830.199,3580.195z"/>
		<path style="opacity:0.15;" d="M3789.583,3580.195h-5.115l-34.657-235.378l-49.017-232.741l41.783-9.435l35.954,2.179
			c0,53.017,4.903,65.916-13.619,138.368l-13.074,40.857L3789.583,3580.195z"/>
		<polygon style="fill:#DB965F;" points="3805.356,3555.485 3799.851,3559.188 3773.789,3576.738 3765.46,3564.36 3757.613,3552.7 
			3748.751,3539.529 3747.823,3538.151 3745.283,3534.379 3747.983,3533.104 3779.892,3518.036 3780.003,3518.198 
			3791.811,3535.564 		"/>
		<path style="fill:#040C2B;" d="M3816.923,3578.795c-35.609,54.203-79.009,70.862-94.177,75.229
			c-7.428,2.138-15.007-3.093-15.513-10.806c-0.589-9.001,5.589-20.219,9.727-26.639c2.861-4.439,5.509-9.015,7.958-13.689
			c13.601-25.926,23.352-39.368,28.496-45.592c2.762-3.334,4.199-4.598,4.199-4.598c23.962,6.024,34.198-17.136,34.198-17.136
			c11.594,4.817,18.976,13.615,23.479,21.304c1.118,1.905,2.055,3.737,2.838,5.428
			C3820.599,3567.635,3820.155,3573.882,3816.923,3578.795z"/>
		<path style="fill:#040C2B;" d="M3790.366,3511.124l-7.019,4.795l-3.344,2.28l-31.251,21.331l-0.995,0.68l-6.89,4.703
			l-91.467-141.917l-12.741-19.914c-8.983-14.037-12.047-31.06-8.527-47.344l49.991-231.125l9.586-0.358l90.469-3.373l0.358,9.455
			c1.792,47.345-6.559,94.527-24.492,138.381l-39.379,96.297c-1.986,7.627-1.103,15.722,2.483,22.745l45.075,88.255
			L3790.366,3511.124z"/>
		<polygon style="opacity:0.15;" points="3824.422,3583.808 3786.506,3583.808 3785.914,3568.164 3823.941,3572.496 		"/>
		<g>
			<path style="fill:#C9885B;" d="M3779.628,2830.224l-0.089,46.197l-52.216,17.033c0,0-11.463-39.234-25.938-42.709
				c-14.475-3.475,0.093-1.138,0.093-1.138l63.411-66.984L3779.628,2830.224z"/>
			<path style="fill:#DB965F;" d="M3696.873,2770.568c0,0-23.255,54.973-3.683,97.957c2.155,4.733,7.344,7.103,12.18,5.507
				c13.5-4.455,41.114-18.89,64.372-65.045C3769.742,2808.986,3728.131,2740.285,3696.873,2770.568z"/>
			<path d="M3762.295,2827.852c0,0-0.143,17.364,17.291,24.231c0,0,16.944-41.287,12.86-72.552c0,0-12.658-39.221-46.062-27.825
				c0,0-35.351-18.929-53.794-0.963c0,0-15.28,28.917,5.489,32.143c0,0,9.175-8.414,19.892-4.101c0,0-5.31,19.804,8.886,26.693
				l0.12,25.594l4.032,0.33l3.745-14.204C3734.754,2817.198,3751.345,2790.298,3762.295,2827.852z"/>
		</g>
		<path style="fill:#FFFFFF;" d="M3835.912,2908.16c0,0,26.395-0.676,35.875,89.822l-45.68,16.807
			C3826.108,3014.789,3790.987,2914.007,3835.912,2908.16z"/>
		<path style="opacity:0.15;" d="M3846.052,3040.091l-12.132-28.523l-7.267,2.675c0,0-12.001-34.439-12.998-64.221l28.104,15.477
			l0.523,9.059l1.912,33.23L3846.052,3040.091z"/>
		<path style="fill:#FFFFFF;" d="M3781.057,2870.992l12.096,7.912l2.017,1.319l43.004,28.123l3.267,62.068l0.59,11.205
			c0.013,0.28,0.017,0.56,0.013,0.836l-2.314,114.613l-0.108,5.258c-0.095,4.796-3.142,9.05-7.671,10.64
			c-29.843,10.48-67.477,10.485-99.827,7.322h-0.026v-0.004c-26.15-2.551-48.847-7.175-61.176-10.002
			c-5.654-1.293-9.459-6.585-8.903-12.355l7.584-78.509c0.047-0.5,0.065-1,0.047-1.5l-3.732-110.355
			c-0.073-2.129,4.499-9.697,6.451-10.537l33.885-10.449l1.495-0.646l13.549-5.848L3781.057,2870.992z"/>
		<path style="opacity:0.15;" d="M3670.15,3018.873c0.043-0.501,0.06-1.002,0.043-1.498l-1.754-51.877l17.132-4.663l-22.869,135.099
			L3670.15,3018.873z"/>
		<g>
			<polygon style="fill:#DB965F;" points="3586.059,3045.835 3585.455,3043.32 3582.094,3029.302 3575.529,3001.913 
				3583.965,2995.899 3598.729,2985.381 3673.125,2932.354 3652.643,3013.701 			"/>
			<path style="fill:#DB965F;" d="M3546.879,3005.132l-62.115,2.347c-12.38-0.161-26.006-3.716-34.693-6.442
				c-4.707-1.479-9.235-3.509-13.401-6.152c-8.468-5.36-18.681-9.499-26.774-12.3c-8.098-2.798-14.075-4.259-14.075-4.259
				c-1.328,4.061,0.656,8.467,4.586,10.154l16.329,7.027l-9.134,2.493c-2,2-3.33-0.566-5,5c-2.355,7.851,6.383,28.027,10.248,36.338
				c1.559,3.352,5,5.525,8.684,5.226c7.979-0.647,15.366-8.291,15.366-8.291l131.59,13.83c8.433,0.887,16.193-2.271,21.579-7.768
				c5.295-5.384,8.303-13.029,7.401-21.31l-21.678-18.837L3546.879,3005.132z"/>
			<path style="fill:#FFFFFF;" d="M3716.17,2974.533l-42.393,30.323l-34.625,22.395l-36.066-50.936
				c38.745-51.673,62.535-76.485,68.729-78.818c2.234-0.84,8.905-0.016,8.905-0.016l0,0c23.555,11.14,37.964,35.49,36.391,61.499
				L3716.17,2974.533z"/>
		</g>
	</g>
</g>
<g>
	<g>
		<path style="fill:#DEE4FC;" d="M4456.564,1992.38l-199.729,4.066c-22.183,0.452-40.532-17.165-40.983-39.348l-3.549-174.306
			c-0.452-22.183,17.165-40.532,39.348-40.983l199.729-4.066c22.183-0.452,40.532,17.165,40.983,39.348l3.548,174.306
			C4496.364,1973.58,4478.747,1991.929,4456.564,1992.38z"/>
		<g>
			<g>
				<g>
					<path style="fill:#FFFFFF;" d="M4440.167,1908.482l-0.706,13.034l-0.015,0.26l0.065,0.021l5.979,2.043
						c-1.073,3.911-2.701,7.571-4.787,10.875c-0.037,0.061-0.075,0.12-0.113,0.179l-2.302-1.127l-3.791-1.858l-7.826,10.455
						l2.778,3.936c-3.262,2.17-6.86,3.817-10.687,4.837l-1.247-6.134l-12.568-0.254l-1.897,6.948
						c-4.218-0.804-8.18-2.361-11.761-4.534l3.65-6.148l-8.568-9.703l-6.987,4.217l-0.061,0.036c-0.166-0.252-0.33-0.507-0.49-0.764
						c-2.708-4.323-4.624-9.247-5.537-14.534l6.151-1.368l0.698-13.297l-6.352-1.982c1.12-4.768,3.057-9.189,5.642-13.091
						l6.521,3.897l8.801-9.547l-3.486-5.87c4.496-2.773,9.582-4.577,14.995-5.147l1.388,7.903l12.556,0.626l1.977-6.549
						c1.134-0.469,7.989,3.841,11.318,6.745l-4.044,5.917l8.409,10.231l5.412-2.986c1.629,3.56,2.764,7.421,3.31,11.48
						L4440.167,1908.482z M4410.382,1888.066c-4.682-0.094-9.188,1.252-13.062,3.854c-1.328,0.89-2.583,1.93-3.745,3.11
						c-4.55,4.619-7.136,10.83-7.283,17.489c-0.147,6.659,2.162,12.969,6.504,17.768c4.342,4.799,10.196,7.512,16.483,7.639
						c6.288,0.127,12.256-2.347,16.807-6.967c4.55-4.619,7.136-10.83,7.284-17.489c0.147-6.659-2.163-12.969-6.504-17.768
						c-0.442-0.49-0.901-0.957-1.374-1.401C4421.326,1890.379,4416.029,1888.18,4410.382,1888.066z"/>
				</g>
			</g>
			<g>
				<g>
					<path style="fill:#FFFFFF;" d="M4429.332,1823.053l-0.794,15.293l-0.017,0.305l0.072,0.025l6.534,2.387
						c-1.181,4.591-2.967,8.887-5.253,12.767c-0.041,0.072-0.082,0.141-0.124,0.21l-2.515-1.318l-4.142-2.173l-8.576,12.278
						l3.031,4.613c-3.571,2.551-7.508,4.489-11.694,5.692l-1.353-7.194l-13.743-0.277l-2.087,8.154
						c-4.61-0.936-8.94-2.757-12.852-5.3l4.002-7.219l-9.352-11.37l-7.647,4.959l-0.067,0.043c-0.181-0.296-0.359-0.594-0.534-0.895
						c-2.953-5.067-5.04-10.841-6.029-17.042l6.729-1.615l0.787-15.601l-6.941-2.315c1.233-5.596,3.359-10.785,6.192-15.368
						l7.124,4.562l9.64-11.214l-3.802-6.882c4.921-3.26,10.485-5.385,16.405-6.063l1.504,9.269l13.728,0.714l2.173-7.687
						c1.241-0.552,8.729,4.493,12.364,7.895l-4.432,6.948l9.176,11.99l5.923-3.512c1.776,4.174,3.009,8.702,3.599,13.463
						L4429.332,1823.053z M4396.797,1799.149c-5.119-0.103-10.048,1.484-14.289,4.543c-1.454,1.047-2.827,2.268-4.1,3.655
						c-4.983,5.427-7.822,12.718-7.995,20.531c-0.172,7.813,2.342,15.212,7.081,20.835s11.136,8.796,18.01,8.935
						c6.875,0.139,13.406-2.774,18.39-8.201c4.983-5.427,7.822-12.718,7.995-20.531s-2.342-15.212-7.081-20.835
						c-0.483-0.574-0.983-1.122-1.499-1.642C4408.761,1801.845,4402.973,1799.273,4396.797,1799.149z"/>
				</g>
			</g>
			<g>
				<g>
					<path style="fill:#FFFFFF;" d="M4362.189,1878.919l-1.093,21.059l-0.022,0.42l0.098,0.034l8.984,3.287
						c-1.623,6.321-4.08,12.237-7.224,17.581c-0.056,0.099-0.113,0.194-0.17,0.289l-3.458-1.815l-5.695-2.993l-11.792,16.908
						l4.167,6.353c-4.91,3.512-10.324,6.181-16.081,7.839l-1.859-9.907l-18.896-0.381l-2.871,11.229
						c-6.339-1.289-12.293-3.796-17.671-7.298l5.503-9.94l-12.858-15.656l-10.516,6.829l-0.092,0.059
						c-0.249-0.407-0.494-0.818-0.734-1.233c-4.06-6.977-6.929-14.928-8.289-23.468l9.252-2.224l1.083-21.483l-9.545-3.188
						c1.696-7.705,4.619-14.852,8.516-21.163l9.795,6.281l13.255-15.443l-5.227-9.476c6.766-4.49,14.417-7.417,22.557-8.349
						l2.068,12.764l18.875,0.983l2.989-10.585c1.707-0.76,12.002,6.187,17,10.871l-6.095,9.568l12.617,16.51l8.145-4.836
						c2.441,5.748,4.137,11.983,4.948,18.539L4362.189,1878.919z M4317.456,1846.004c-7.039-0.142-13.816,2.043-19.648,6.257
						c-1.999,1.441-3.887,3.123-5.637,5.033c-6.853,7.473-10.757,17.513-10.995,28.271c-0.237,10.759,3.219,20.947,9.736,28.69
						c6.516,7.743,15.312,12.112,24.764,12.303c9.454,0.191,18.434-3.82,25.287-11.293s10.756-17.513,10.994-28.271
						c0.238-10.759-3.219-20.947-9.735-28.69c-0.664-0.79-1.352-1.545-2.062-2.26
						C4333.905,1849.716,4325.946,1846.176,4317.456,1846.004z"/>
				</g>
			</g>
		</g>
	</g>
	<g>
		<g>
			<path style="fill:#DEE4FC;" d="M751.431,2619.235H551.66c-22.188,0-40.174-17.987-40.174-40.174l0-174.342
				c0-22.188,17.987-40.174,40.174-40.174l199.771,0c22.187,0,40.174,17.987,40.174,40.174l0,174.342
				C791.605,2601.248,773.619,2619.235,751.431,2619.235z"/>
		</g>
		<g>
			<path style="fill:#FFFFFF;" d="M719.501,2437.606v133.057c0,5.04-4.086,9.126-9.126,9.126H592.717
				c-5.04,0-9.126-4.086-9.126-9.126v-157.547c0-5.04,4.086-9.126,9.126-9.126h92.557l0.611,0.6L719.501,2437.606z"/>
			<path style="opacity:0.15;" d="M719.501,2437.606h-26.187c-4.103,0-7.429-3.326-7.429-7.429v-25.587L719.501,2437.606z"/>
			<g>
				<path style="fill:none;stroke:#829CF8;stroke-width:3;stroke-miterlimit:10;" d="M651.546,2508.745h-41.409v-36.34
					c0-2.799,2.269-5.068,5.068-5.068h36.34V2508.745z"/>
				<path style="fill:none;stroke:#829CF8;stroke-width:3;stroke-miterlimit:10;" d="M692.955,2508.745h-41.409v-41.408h36.34
					c2.799,0,5.068,2.269,5.068,5.068V2508.745z"/>
				<path style="fill:none;stroke:#829CF8;stroke-width:3;stroke-miterlimit:10;" d="M651.546,2550.154h-36.34
					c-2.799,0-5.068-2.269-5.068-5.068v-36.34h41.409V2550.154z"/>
				<path style="fill:none;stroke:#829CF8;stroke-width:3;stroke-miterlimit:10;" d="M687.886,2550.154h-36.34v-41.408h41.409v36.34
					C692.955,2547.885,690.685,2550.154,687.886,2550.154z"/>
			</g>
		</g>
	</g>
</g>
</svg>
